<!DOCTYPE svg PUBLIC "-//W3C//DTD SVG 20010904//EN" "http://www.w3.org/TR/2001/REC-SVG-20010904/DTD/svg10.dtd">
<svg version="1.0" xmlns="http://www.w3.org/2000/svg" width="272px" height="260px" viewBox="0 0 2720 2600" preserveAspectRatio="xMidYMid meet">
<g id="layer101" fill="#000000" stroke="none">
<path d="M0 1300 l0 -1300 1360 0 1360 0 0 1300 0 1300 -1360 0 -1360 0 0 -1300z"/>
</g>
<g id="layer102" fill="#050505" stroke="none">
<path d="M0 1300 l0 -1300 1360 0 1360 0 0 1300 0 1300 -1360 0 -1360 0 0 -1300z m2447 1083 c-3 -10 -5 -2 -5 17 0 19 2 27 5 18 2 -10 2 -26 0 -35z m0 -40 c-4 -3 -7 0 -7 7 0 7 3 10 7 7 3 -4 3 -10 0 -14z m0 -60 c-3 -10 -5 -2 -5 17 0 19 2 27 5 18 2 -10 2 -26 0 -35z m23 -147 c0 -26 -6 -18 -14 19 -5 22 -4 26 4 15 5 -8 10 -24 10 -34z m-1143 -23 c-4 -3 -7 0 -7 7 0 7 3 10 7 7 3 -4 3 -10 0 -14z m-450 -20 c-4 -3 -7 0 -7 7 0 7 3 10 7 7 3 -4 3 -10 0 -14z m508 -13 c3 -6 -1 -7 -9 -4 -18 7 -21 14 -7 14 6 0 13 -4 16 -10z m1082 -17 c-4 -3 -7 0 -7 7 0 7 3 10 7 7 3 -4 3 -10 0 -14z m-1042 -23 c3 -5 4 -10 1 -10 -3 0 -8 5 -11 10 -3 6 -4 10 -1 10 3 0 8 -4 11 -10z m50 -30 c3 -5 4 -10 1 -10 -3 0 -8 5 -11 10 -3 6 -4 10 -1 10 3 0 8 -4 11 -10z m1014 -17 c0 -5 -4 -17 -9 -28 -8 -18 -9 -17 -9 8 -1 15 4 27 9 27 6 0 10 -3 9 -7z m-1180 -38 c-13 -13 -28 -25 -33 -25 -5 0 3 11 18 25 35 32 45 32 15 0z m211 15 c0 -5 -2 -10 -4 -10 -3 0 -8 5 -11 10 -3 6 -1 10 4 10 6 0 11 -4 11 -10z m-407 -102 c43 -51 81 -97 86 -103 5 -5 18 -18 29 -27 14 -11 19 -25 17 -39 -3 -12 1 -30 7 -38 28 -38 -22 18 -92 102 -39 48 -76 87 -80 87 -4 0 -10 -7 -14 -15 -11 -30 -25 -16 -14 15 8 24 7 35 -7 56 -9 15 -12 23 -6 20 6 -4 11 -3 11 3 0 5 -8 15 -17 20 -10 6 -13 11 -8 11 6 0 45 -42 88 -92z m457 72 c0 -5 -2 -10 -4 -10 -3 0 -8 5 -11 10 -3 6 -1 10 4 10 6 0 11 -4 11 -10z m987 -57 c-4 -3 -7 0 -7 7 0 7 3 10 7 7 3 -4 3 -10 0 -14z m-60 -100 c-3 -10 -5 -2 -5 17 0 19 2 27 5 18 2 -10 2 -26 0 -35z m-1260 -5 c-3 -8 -6 -5 -6 6 -1 11 2 17 5 13 3 -3 4 -12 1 -19z m1387 -24 c3 -8 2 -12 -4 -9 -6 3 -10 10 -10 16 0 14 7 11 14 -7z m33 -156 c-2 -13 -4 -3 -4 22 0 25 2 35 4 23 2 -13 2 -33 0 -45z m-1370 45 c-4 -3 -10 -3 -14 0 -3 4 0 7 7 7 7 0 10 -3 7 -7z m38 -53 c3 -5 4 -10 1 -10 -3 0 -8 5 -11 10 -3 6 -4 10 -1 10 3 0 8 -4 11 -10z m-208 -7 c-4 -3 -10 -3 -14 0 -3 4 0 7 7 7 7 0 10 -3 7 -7z m100 -45 c-3 -8 -6 -5 -6 6 -1 11 2 17 5 13 3 -3 4 -12 1 -19z m138 2 c3 -5 4 -10 1 -10 -3 0 -8 5 -11 10 -3 6 -4 10 -1 10 3 0 8 -4 11 -10z m-168 -82 c-3 -8 -6 -5 -6 6 -1 11 2 17 5 13 3 -3 4 -12 1 -19z m-10 -35 c-4 -3 -7 0 -7 7 0 7 3 10 7 7 3 -4 3 -10 0 -14z m313 -13 c0 -15 -5 -12 -26 11 -19 22 -19 22 4 10 12 -6 22 -16 22 -21z m1060 16 c0 -2 -7 -7 -16 -10 -8 -3 -12 -2 -9 4 6 10 25 14 25 6z m-1773 -73 c-4 -3 -7 0 -7 7 0 7 3 10 7 7 3 -4 3 -10 0 -14z m523 7 c0 -5 -2 -10 -4 -10 -3 0 -8 5 -11 10 -3 6 -1 10 4 10 6 0 11 -4 11 -10z m367 -57 c-4 -3 -10 -3 -14 0 -3 4 0 7 7 7 7 0 10 -3 7 -7z m660 0 c-4 -3 -10 -3 -14 0 -3 4 0 7 7 7 7 0 10 -3 7 -7z m-1037 -63 c0 -5 -5 -10 -11 -10 -5 0 -7 5 -4 10 3 6 8 10 11 10 2 0 4 -4 4 -10z m905 0 c-3 -5 -12 -10 -18 -10 -7 0 -6 4 3 10 19 12 23 12 15 0z m-66 -90 c4 0 5 -16 3 -35 -3 -23 3 -49 18 -77 12 -23 24 -63 27 -88 3 -25 9 -47 13 -50 11 -7 16 -157 6 -190 -4 -14 -8 -31 -10 -38 -5 -27 -98 -98 -115 -88 -5 3 -11 1 -13 -4 -7 -21 -134 -34 -208 -21 -39 7 -72 17 -76 22 -3 5 -14 9 -25 9 -10 0 -27 9 -36 20 -18 21 -63 28 -63 10 0 -5 -7 -10 -15 -10 -10 0 -15 10 -15 33 0 22 -3 28 -9 18 -12 -19 -43 -6 -39 16 2 10 12 18 23 19 23 0 55 -13 54 -24 -3 -19 2 -23 16 -12 19 16 19 32 1 28 -8 -2 -15 2 -15 7 -1 6 29 12 66 15 l68 6 -68 4 c-37 3 -72 1 -77 -4 -11 -11 -32 2 -24 15 3 5 9 7 14 4 4 -3 10 1 13 9 4 10 21 12 66 9 58 -5 61 -4 71 22 5 14 10 59 10 100 0 84 6 105 29 105 17 0 58 -54 53 -71 -2 -10 22 -39 33 -39 13 0 44 46 45 66 0 11 -14 33 -30 49 -25 24 -28 32 -17 40 8 5 21 24 31 42 23 45 49 57 112 49 55 -6 63 -1 65 47 1 17 2 18 6 5 2 -10 8 -18 12 -18z m-1266 -67 c-7 -2 -19 -2 -25 0 -7 3 -2 5 12 5 14 0 19 -2 13 -5z m154 0 c-4 -3 -10 -3 -14 0 -3 4 0 7 7 7 7 0 10 -3 7 -7z m898 -154 c8 -23 1 -34 -14 -24 -13 8 -15 45 -2 45 5 0 13 -9 16 -21z m-158 -76 c-4 -3 -7 0 -7 7 0 7 3 10 7 7 3 -4 3 -10 0 -14z m-90 -60 c-4 -3 -7 0 -7 7 0 7 3 10 7 7 3 -4 3 -10 0 -14z m40 10 c-4 -3 -10 -3 -14 0 -3 4 0 7 7 7 7 0 10 -3 7 -7z"/>
</g>
<g id="layer103" fill="#12162b" stroke="none">
<path d="M0 1300 l0 -1300 1360 0 1360 0 0 1300 0 1300 -1360 0 -1360 0 0 -1300z m1627 1063 c-2 -21 -4 -6 -4 32 0 39 2 55 4 38 2 -18 2 -50 0 -70z m820 -45 c-2 -29 -3 -8 -3 47 0 55 1 79 3 53 2 -26 2 -71 0 -100z m-830 -75 c-2 -16 -4 -3 -4 27 0 30 2 43 4 28 2 -16 2 -40 0 -55z m-580 -30 c-4 -3 -10 -3 -14 0 -3 4 0 7 7 7 7 0 10 -3 7 -7z m110 0 c-4 -3 -10 -3 -14 0 -3 4 0 7 7 7 7 0 10 -3 7 -7z m-157 -13 c0 -5 -6 -10 -13 -10 -18 0 -86 -66 -97 -94 -7 -16 -9 -17 -9 -4 -1 18 60 87 94 106 25 14 25 14 25 2z m267 -28 c18 -9 35 -23 38 -31 5 -12 2 -11 -13 2 -10 9 -24 17 -30 17 -7 0 -12 4 -12 9 0 5 -13 12 -30 16 -16 4 -30 11 -30 16 0 10 7 7 77 -29z m1212 -67 c-1 -60 -6 -50 -12 23 -2 32 -1 48 4 40 5 -7 8 -35 8 -63z m-872 23 c-3 -7 -5 -2 -5 12 0 14 2 19 5 13 2 -7 2 -19 0 -25z m-267 -8 c0 -5 -2 -10 -4 -10 -3 0 -8 5 -11 10 -3 6 -1 10 4 10 6 0 11 -4 11 -10z m83 -62 c34 -31 35 -33 13 -33 -13 0 -22 5 -19 11 2 7 -8 21 -23 33 -15 11 -22 21 -17 21 5 0 26 -15 46 -32z m174 -20 c-3 -7 -5 -2 -5 12 0 14 2 19 5 13 2 -7 2 -19 0 -25z m915 -50 c16 -24 17 -27 3 -21 -10 3 -21 0 -26 -8 -6 -9 -8 6 -8 41 1 30 4 46 6 35 3 -11 14 -32 25 -47z m-1112 28 c0 -2 -7 -7 -16 -10 -8 -3 -12 -2 -9 4 6 10 25 14 25 6z m85 -6 c3 -5 4 -10 1 -10 -3 0 -8 5 -11 10 -3 6 -4 10 -1 10 3 0 8 -4 11 -10z m-166 -55 c-13 -13 -28 -25 -33 -25 -6 0 3 13 19 30 16 16 31 28 33 25 3 -2 -6 -16 -19 -30z m217 8 c-7 -7 -26 7 -26 19 0 6 6 6 15 -2 9 -7 13 -15 11 -17z m-413 -95 c43 -51 82 -98 87 -105 5 -6 17 -16 25 -20 8 -5 18 -19 20 -31 3 -12 7 -32 10 -44 6 -26 7 -28 -95 95 -39 48 -76 87 -80 87 -4 0 -10 -7 -14 -15 -11 -30 -25 -16 -14 15 8 24 7 35 -6 55 -12 18 -13 25 -4 25 8 1 5 7 -6 15 -11 8 -15 15 -10 15 5 0 44 -42 87 -92z m457 72 c0 -5 -7 -7 -15 -4 -8 4 -15 8 -15 10 0 2 7 4 15 4 8 0 15 -4 15 -10z m975 -20 c3 -5 4 -10 1 -10 -3 0 -8 5 -11 10 -3 6 -4 10 -1 10 3 0 8 -4 11 -10z m12 -37 c-4 -3 -7 0 -7 7 0 7 3 10 7 7 3 -4 3 -10 0 -14z m32 -58 c0 -5 -4 -3 -9 5 -5 8 -9 22 -9 30 0 16 17 -16 18 -35z m-92 -42 c-3 -10 -5 -2 -5 17 0 19 2 27 5 18 2 -10 2 -26 0 -35z m-1260 -5 c-3 -7 -5 -2 -5 12 0 14 2 19 5 13 2 -7 2 -19 0 -25z m1387 -24 c3 -8 2 -12 -4 -9 -6 3 -10 10 -10 16 0 14 7 11 14 -7z m-1617 -61 c-4 -3 -7 0 -7 7 0 7 3 10 7 7 3 -4 3 -10 0 -14z m-230 -45 c-3 -7 -5 -2 -5 12 0 14 2 19 5 13 2 -7 2 -19 0 -25z m143 12 c6 -11 8 -20 6 -20 -3 0 -10 9 -16 20 -6 11 -8 20 -6 20 3 0 10 -9 16 -20z m1737 -57 c-2 -16 -4 -5 -4 22 0 28 2 40 4 28 2 -13 2 -35 0 -50z m-1640 30 c-4 -3 -7 0 -7 7 0 7 3 10 7 7 3 -4 3 -10 0 -14z m277 1 c9 -24 2 -26 -12 -4 -7 11 -8 20 -3 20 5 0 12 -7 15 -16z m-261 -34 c3 -11 1 -20 -4 -20 -5 0 -9 9 -9 20 0 11 2 20 4 20 2 0 6 -9 9 -20z m-273 -57 c-11 -17 -11 -17 -6 0 3 10 7 31 7 45 l2 27 4 -27 c2 -15 -1 -35 -7 -45z m575 37 l20 -25 -22 19 c-13 11 -23 24 -23 29 0 6 1 8 3 6 1 -2 11 -15 22 -29z m-248 3 c-4 -3 -10 -3 -14 0 -3 4 0 7 7 7 7 0 10 -3 7 -7z m30 0 c-4 -3 -10 -3 -14 0 -3 4 0 7 7 7 7 0 10 -3 7 -7z m95 -65 c-9 -32 -9 -31 -8 14 0 28 4 41 9 33 4 -8 4 -29 -1 -47z m-297 12 c-9 -41 -17 -33 -9 9 4 17 9 30 11 27 3 -2 2 -19 -2 -36z m467 -7 c15 -15 28 -31 28 -36 0 -6 -11 3 -25 19 -29 34 -45 29 -82 -26 -13 -18 -23 -28 -23 -23 0 13 59 92 69 93 3 0 18 -12 33 -27z m1249 4 c-10 -9 -11 -8 -5 6 3 10 9 15 12 12 3 -3 0 -11 -7 -18z m-1781 -42 c0 -5 -5 -3 -10 5 -5 8 -10 20 -10 25 0 6 5 3 10 -5 5 -8 10 -19 10 -25z m1770 21 c0 -3 -5 -8 -12 -12 -7 -4 -8 -3 -4 4 7 12 16 16 16 8z m-1696 -32 c3 -8 2 -12 -4 -9 -6 3 -10 10 -10 16 0 14 7 11 14 -7z m263 -16 c-3 -8 -6 -5 -6 6 -1 11 2 17 5 13 3 -3 4 -12 1 -19z m303 -54 c0 -4 -16 7 -35 26 -19 19 -35 37 -35 41 0 3 16 -8 35 -27 19 -18 35 -36 35 -40z m-633 39 c-4 -3 -7 0 -7 7 0 7 3 10 7 7 3 -4 3 -10 0 -14z m-83 -53 c4 -26 11 -40 21 -40 8 0 15 -9 15 -21 0 -27 -14 -17 -33 23 -19 44 -30 91 -19 84 5 -3 12 -24 16 -46z m403 28 c-3 -8 -6 -5 -6 6 -1 11 2 17 5 13 3 -3 4 -12 1 -19z m138 -34 c-14 -27 -25 -54 -25 -60 0 -7 -8 -15 -17 -19 -15 -5 -16 -4 -5 6 6 7 12 26 12 41 0 15 4 28 10 28 5 0 17 14 25 31 9 17 18 29 21 27 2 -3 -7 -27 -21 -54z m-420 28 c-3 -3 -11 0 -18 7 -9 10 -8 11 6 5 10 -3 15 -9 12 -12z m1655 14 c0 -2 -7 -7 -16 -10 -8 -3 -12 -2 -9 4 6 10 25 14 25 6z m-1035 -36 c3 -5 4 -10 1 -10 -3 0 -8 5 -11 10 -3 6 -4 10 -1 10 3 0 8 -4 11 -10z m50 -40 c3 -5 -1 -10 -9 -10 -9 0 -16 -7 -16 -17 0 -9 -3 -14 -6 -10 -8 8 5 47 16 47 5 0 12 -4 15 -10z m32 -17 c-4 -3 -10 -3 -14 0 -3 4 0 7 7 7 7 0 10 -3 7 -7z m800 0 c-4 -3 -10 -3 -14 0 -3 4 0 7 7 7 7 0 10 -3 7 -7z m-770 -20 c-4 -3 -10 -3 -14 0 -3 4 0 7 7 7 7 0 10 -3 7 -7z m730 0 c-4 -3 -10 -3 -14 0 -3 4 0 7 7 7 7 0 10 -3 7 -7z m-1220 -20 c-4 -3 -7 0 -7 7 0 7 3 10 7 7 3 -4 3 -10 0 -14z m373 -20 c-11 -17 -11 -17 -6 0 3 10 6 24 7 30 0 9 2 9 5 0 3 -7 0 -20 -6 -30z m157 31 c-3 -3 -12 -4 -19 -1 -8 3 -5 6 6 6 11 1 17 -2 13 -5z m660 -1 c-4 -3 -10 -3 -14 0 -3 4 0 7 7 7 7 0 10 -3 7 -7z m-1530 -25 c-3 -8 -6 -5 -6 6 -1 11 2 17 5 13 3 -3 4 -12 1 -19z m453 8 c0 -3 -5 -8 -12 -12 -7 -4 -8 -3 -4 4 7 12 16 16 16 8z m72 -24 c-9 -2 -21 -9 -27 -15 -18 -21 -83 -50 -99 -44 -9 4 -15 17 -15 29 l2 23 4 -22 c2 -13 11 -23 19 -23 18 0 84 41 103 64 11 13 16 14 22 4 6 -9 3 -14 -9 -16z m74 8 c0 -11 -6 -20 -13 -20 -20 0 -24 18 -6 29 10 6 18 11 18 11 1 0 1 -9 1 -20z m48 -5 c-4 -8 -1 -15 5 -15 6 0 11 -4 11 -10 0 -6 -9 -5 -24 1 -19 9 -22 14 -13 25 16 18 28 17 21 -1z m333 8 c-4 -3 -10 -3 -14 0 -3 4 0 7 7 7 7 0 10 -3 7 -7z m483 3 c0 -3 -5 -8 -12 -12 -7 -4 -8 -3 -4 4 7 12 16 16 16 8z m-1040 -10 c0 -3 -5 -8 -12 -12 -7 -4 -8 -3 -4 4 7 12 16 16 16 8z m597 -2 c-3 -3 -12 -4 -19 -1 -8 3 -5 6 6 6 11 1 17 -2 13 -5z m-1040 -36 c-3 -7 -5 -2 -5 12 0 14 2 19 5 13 2 -7 2 -19 0 -25z m1278 3 c61 1 119 6 130 11 11 5 8 0 -8 -12 -15 -12 -25 -26 -21 -31 3 -5 1 -9 -5 -9 -5 0 -12 -6 -14 -12 -2 -7 -3 -1 -1 13 l3 27 -86 1 c-99 0 -173 10 -173 21 0 5 15 4 33 -1 17 -5 82 -9 142 -8z m-951 -45 c-3 -21 -8 -35 -11 -32 -2 2 -1 20 3 40 3 21 8 35 11 32 2 -2 1 -20 -3 -40z m-337 2 c-3 -8 -6 -5 -6 6 -1 11 2 17 5 13 3 -3 4 -12 1 -19z m1116 7 c-3 -9 -8 -14 -10 -11 -3 3 -2 9 2 15 9 16 15 13 8 -4z m-63 -3 c0 -5 -13 -7 -29 -4 -16 2 -39 -2 -52 -9 -22 -11 -23 -11 -10 4 14 17 91 25 91 9z m311 -80 c-1 -19 6 -50 19 -75 12 -22 24 -62 27 -87 3 -25 9 -47 13 -50 11 -7 16 -157 6 -190 -4 -14 -8 -31 -10 -38 -5 -27 -98 -98 -115 -88 -5 3 -11 1 -13 -4 -7 -21 -134 -34 -208 -21 -39 7 -72 17 -76 22 -3 5 -14 9 -25 9 -10 0 -27 9 -36 20 -18 21 -63 28 -63 10 0 -5 -7 -10 -15 -10 -10 0 -15 10 -15 33 0 22 -3 28 -9 18 -12 -19 -43 -6 -39 16 2 13 13 18 35 18 17 0 35 3 39 8 4 4 37 8 73 9 l66 1 -65 6 c-36 3 -69 3 -74 -1 -16 -13 -38 -9 -33 5 2 6 9 11 16 10 6 -2 14 9 17 23 4 17 9 22 14 14 4 -7 31 -15 59 -18 48 -4 51 -3 61 22 5 15 10 60 10 101 0 84 6 105 29 105 17 0 58 -54 53 -71 -2 -10 22 -39 33 -39 13 0 44 46 45 66 0 11 -14 33 -30 49 -25 24 -28 32 -17 40 8 5 21 24 31 42 23 45 49 57 112 49 55 -6 64 0 64 47 1 22 1 22 12 2 7 -11 11 -35 9 -53z m-261 48 c0 -5 -2 -10 -4 -10 -3 0 -8 5 -11 10 -3 6 -1 10 4 10 6 0 11 -4 11 -10z m-160 -52 c11 -12 20 -27 20 -32 0 -6 -9 0 -19 13 -10 13 -23 21 -30 17 -12 -8 -15 6 -4 17 9 10 10 9 33 -15z m-630 8 c0 -2 -8 -10 -17 -17 -16 -13 -17 -12 -4 4 13 16 21 21 21 13z m-107 -33 c-40 -2 -106 -2 -145 0 -40 1 -8 3 72 3 80 0 112 -2 73 -3z m697 3 c0 -3 -4 -8 -10 -11 -5 -3 -10 -1 -10 4 0 6 5 11 10 11 6 0 10 -2 10 -4z m245 -157 c8 -23 1 -34 -14 -24 -13 8 -15 45 -2 45 5 0 13 -9 16 -21z m-208 -16 c-4 -3 -7 0 -7 7 0 7 3 10 7 7 3 -4 3 -10 0 -14z m-75 -52 c2 -17 1 -28 -4 -25 -8 5 -12 54 -4 54 2 0 6 -13 8 -29z m125 -8 c-4 -3 -7 0 -7 7 0 7 3 10 7 7 3 -4 3 -10 0 -14z m-23 -17 c-4 -10 -16 -15 -33 -15 -24 2 -24 2 -3 6 13 3 26 11 29 19 3 8 7 13 9 11 3 -2 2 -12 -2 -21z m-87 -43 c-4 -3 -7 0 -7 7 0 7 3 10 7 7 3 -4 3 -10 0 -14z m20 0 c-4 -3 -7 0 -7 7 0 7 3 10 7 7 3 -4 3 -10 0 -14z m40 10 c-4 -3 -10 -3 -14 0 -3 4 0 7 7 7 7 0 10 -3 7 -7z"/>
</g>
<g id="layer104" fill="#2f2f2f" stroke="none">
<path d="M0 1300 l0 -1300 1360 0 1360 0 0 1300 0 1300 -1360 0 -1360 0 0 -1300z m1627 1063 c-2 -21 -4 -6 -4 32 0 39 2 55 4 38 2 -18 2 -50 0 -70z m841 -264 c8 -61 18 -87 51 -140 22 -35 41 -70 41 -76 0 -7 4 -13 8 -13 5 0 13 -16 19 -35 6 -19 7 -33 2 -29 -5 3 -9 10 -9 15 0 14 -73 139 -81 139 -3 0 -5 -44 -3 -97 2 -84 1 -90 -5 -38 -5 33 -14 112 -20 175 -6 63 -16 128 -21 144 -6 16 -9 95 -8 175 l2 146 7 -145 c4 -80 12 -179 17 -221z m-851 144 c-2 -16 -4 -3 -4 27 0 30 2 43 4 28 2 -16 2 -40 0 -55z m-580 -30 c-4 -3 -10 -3 -14 0 -3 4 0 7 7 7 7 0 10 -3 7 -7z m110 0 c-4 -3 -10 -3 -14 0 -3 4 0 7 7 7 7 0 10 -3 7 -7z m-157 -13 c0 -5 -6 -10 -13 -10 -18 0 -86 -66 -97 -94 -7 -16 -9 -17 -9 -4 -1 18 60 87 94 106 25 14 25 14 25 2z m267 -28 c18 -9 35 -23 38 -31 5 -12 2 -11 -13 2 -10 9 -24 17 -30 17 -7 0 -12 4 -12 9 0 5 -13 12 -30 16 -16 4 -30 11 -30 16 0 10 7 7 77 -29z m340 -44 c-3 -7 -5 -2 -5 12 0 14 2 19 5 13 2 -7 2 -19 0 -25z m-267 -8 c0 -5 -2 -10 -4 -10 -3 0 -8 5 -11 10 -3 6 -1 10 4 10 6 0 11 -4 11 -10z m67 -48 c27 -27 151 -122 160 -122 11 -1 46 -50 36 -50 -4 0 -39 27 -77 60 -38 33 -78 60 -88 60 -19 0 -82 -30 -108 -52 -9 -7 -25 -26 -38 -42 -12 -16 -22 -24 -22 -18 0 21 58 78 104 100 25 13 46 27 46 32 0 5 -12 18 -26 29 -15 12 -22 21 -16 21 6 0 19 -8 29 -18z m190 -34 c-3 -7 -5 -2 -5 12 0 14 2 19 5 13 2 -7 2 -19 0 -25z m-474 -170 c103 -123 109 -129 124 -124 9 4 13 -5 14 -27 0 -18 2 -41 4 -51 4 -23 6 -25 -95 97 -39 48 -76 87 -80 87 -4 0 -10 -7 -14 -15 -11 -30 -25 -16 -14 15 8 24 7 35 -6 55 -12 18 -13 25 -4 25 8 1 5 7 -6 15 -11 8 -15 15 -10 15 5 0 44 -42 87 -92z m138 -15 c-4 -28 -6 -32 -9 -15 -3 22 3 52 11 52 1 0 1 -17 -2 -37z m-14 -75 c-3 -7 -5 -2 -5 12 0 14 2 19 5 13 2 -7 2 -19 0 -25z m1402 -78 c0 -17 -23 33 -33 71 -3 13 3 6 14 -16 11 -22 19 -47 19 -55z m-1632 -7 c-4 -3 -7 0 -7 7 0 7 3 10 7 7 3 -4 3 -10 0 -14z m-230 -45 c-3 -7 -5 -2 -5 12 0 14 2 19 5 13 2 -7 2 -19 0 -25z m143 12 c6 -11 8 -20 6 -20 -3 0 -10 9 -16 20 -6 11 -8 20 -6 20 3 0 10 -9 16 -20z m1740 -35 c0 -25 -4 -45 -8 -45 -5 0 -9 20 -9 45 0 25 4 45 9 45 4 0 8 -20 8 -45z m-1643 8 c-4 -3 -7 0 -7 7 0 7 3 10 7 7 3 -4 3 -10 0 -14z m277 1 c9 -24 2 -26 -12 -4 -7 11 -8 20 -3 20 5 0 12 -7 15 -16z m-261 -34 c3 -11 1 -20 -4 -20 -5 0 -9 9 -9 20 0 11 2 20 4 20 2 0 6 -9 9 -20z m-273 -57 c-11 -17 -11 -17 -6 0 3 10 7 31 7 45 l2 27 4 -27 c2 -15 -1 -35 -7 -45z m575 37 l20 -25 -22 19 c-13 11 -23 24 -23 29 0 6 1 8 3 6 1 -2 11 -15 22 -29z m-248 3 c-4 -3 -10 -3 -14 0 -3 4 0 7 7 7 7 0 10 -3 7 -7z m30 0 c-4 -3 -10 -3 -14 0 -3 4 0 7 7 7 7 0 10 -3 7 -7z m95 -65 c-9 -32 -9 -31 -8 14 0 28 4 41 9 33 4 -8 4 -29 -1 -47z m-296 22 c-3 -17 -1 -41 4 -55 5 -14 7 -25 5 -25 -3 0 -10 11 -15 25 -9 23 -3 85 8 85 2 0 2 -14 -2 -30z m1701 -33 c-39 -51 -71 -83 -103 -102 -16 -10 -3 5 28 34 32 29 65 69 75 88 9 20 19 31 21 24 2 -6 -7 -26 -21 -44z m-1235 16 c15 -15 28 -31 28 -36 0 -6 -11 3 -25 19 -29 34 -45 29 -82 -26 -13 -18 -23 -28 -23 -23 0 13 59 92 69 93 3 0 18 -12 33 -27z m-532 -38 c0 -5 -5 -3 -10 5 -5 8 -10 20 -10 25 0 6 5 3 10 -5 5 -8 10 -19 10 -25z m337 -27 c-3 -8 -6 -5 -6 6 -1 11 2 17 5 13 3 -3 4 -12 1 -19z m303 -54 c0 -4 -16 7 -35 26 -19 19 -35 37 -35 41 0 3 16 -8 35 -27 19 -18 35 -36 35 -40z m-633 39 c-4 -3 -7 0 -7 7 0 7 3 10 7 7 3 -4 3 -10 0 -14z m93 -19 c0 -8 -4 -14 -8 -14 -4 0 -8 9 -8 19 0 11 4 17 8 15 4 -3 8 -12 8 -20z m-176 -34 c4 -26 11 -40 21 -40 8 0 15 -9 15 -21 0 -27 -14 -17 -33 23 -19 44 -30 91 -19 84 5 -3 12 -24 16 -46z m403 28 c-3 -8 -6 -5 -6 6 -1 11 2 17 5 13 3 -3 4 -12 1 -19z m138 -34 c-14 -27 -25 -54 -25 -60 0 -7 -8 -15 -17 -19 -15 -5 -16 -4 -5 6 6 7 12 26 12 41 0 15 4 28 10 28 5 0 17 14 25 31 9 17 18 29 21 27 2 -3 -7 -27 -21 -54z m-420 28 c-3 -3 -11 0 -18 7 -9 10 -8 11 6 5 10 -3 15 -9 12 -12z m32 -18 c-3 -3 -12 -4 -19 -1 -8 3 -5 6 6 6 11 1 17 -2 13 -5z m588 -4 c3 -5 4 -10 1 -10 -3 0 -8 5 -11 10 -3 6 -4 10 -1 10 3 0 8 -4 11 -10z m961 -9 c-8 -12 -176 -94 -182 -88 -3 3 37 25 88 50 106 52 101 50 94 38z m-911 -31 c3 -5 -1 -10 -9 -10 -9 0 -16 -7 -16 -17 0 -9 -3 -14 -6 -10 -8 8 5 47 16 47 5 0 12 -4 15 -10z m32 -17 c-4 -3 -10 -3 -14 0 -3 4 0 7 7 7 7 0 10 -3 7 -7z m30 -20 c-4 -3 -10 -3 -14 0 -3 4 0 7 7 7 7 0 10 -3 7 -7z m-490 -20 c-4 -3 -7 0 -7 7 0 7 3 10 7 7 3 -4 3 -10 0 -14z m373 -20 c-11 -17 -11 -17 -6 0 3 10 6 24 7 30 0 9 2 9 5 0 3 -7 0 -20 -6 -30z m157 31 c-3 -3 -12 -4 -19 -1 -8 3 -5 6 6 6 11 1 17 -2 13 -5z m-870 -26 c-3 -8 -6 -5 -6 6 -1 11 2 17 5 13 3 -3 4 -12 1 -19z m453 8 c0 -3 -5 -8 -12 -12 -7 -4 -8 -3 -4 4 7 12 16 16 16 8z m72 -24 c-9 -2 -21 -9 -27 -15 -18 -21 -83 -50 -99 -44 -9 4 -15 17 -15 29 l2 23 4 -22 c2 -13 11 -23 19 -23 18 0 84 41 103 64 11 13 16 14 22 4 6 -9 3 -14 -9 -16z m74 8 c0 -11 -6 -20 -13 -20 -20 0 -24 18 -6 29 10 6 18 11 18 11 1 0 1 -9 1 -20z m48 -5 c-4 -8 -1 -15 5 -15 6 0 11 -4 11 -10 0 -6 -9 -5 -24 1 -19 9 -22 14 -13 25 16 18 28 17 21 -1z m333 8 c-4 -3 -10 -3 -14 0 -3 4 0 7 7 7 7 0 10 -3 7 -7z m478 -3 c-3 -5 -12 -10 -18 -10 -20 0 -88 -50 -82 -61 4 -5 2 -9 -4 -9 -5 0 -12 -6 -14 -12 -2 -7 -3 -1 -1 13 l3 27 -86 1 c-99 0 -173 10 -173 21 0 5 15 4 33 -1 17 -5 81 -9 141 -8 94 1 114 5 150 25 44 25 61 30 51 14z m-1035 -4 c0 -3 -5 -8 -12 -12 -7 -4 -8 -3 -4 4 7 12 16 16 16 8z m597 -2 c-3 -3 -12 -4 -19 -1 -8 3 -5 6 6 6 11 1 17 -2 13 -5z m-1040 -36 c-3 -7 -5 -2 -5 12 0 14 2 19 5 13 2 -7 2 -19 0 -25z m327 -42 c-3 -21 -8 -35 -11 -32 -2 2 -1 20 3 40 3 21 8 35 11 32 2 -2 1 -20 -3 -40z m-337 2 c-3 -8 -6 -5 -6 6 -1 11 2 17 5 13 3 -3 4 -12 1 -19z m1116 7 c-3 -9 -8 -14 -10 -11 -3 3 -2 9 2 15 9 16 15 13 8 -4z m-63 -3 c0 -5 -13 -7 -29 -4 -16 2 -39 -2 -52 -9 -22 -11 -23 -11 -10 4 14 17 91 25 91 9z m311 -80 c-1 -19 6 -50 19 -75 12 -22 24 -62 27 -87 3 -25 9 -47 13 -50 11 -7 16 -157 6 -190 -4 -14 -8 -31 -10 -38 -5 -27 -98 -98 -115 -88 -5 3 -11 1 -13 -4 -7 -21 -134 -34 -208 -21 -39 7 -72 17 -76 22 -3 5 -14 9 -25 9 -10 0 -27 9 -36 20 -18 21 -63 28 -63 10 0 -5 -7 -10 -15 -10 -10 0 -15 10 -15 33 0 22 -3 28 -9 18 -12 -19 -43 -6 -39 16 2 13 13 18 35 18 17 0 35 3 39 8 4 4 37 8 73 9 l66 1 -65 6 c-36 3 -69 3 -74 -1 -16 -13 -38 -9 -33 5 2 6 9 11 16 10 6 -2 14 9 17 23 4 17 9 22 14 14 4 -7 31 -15 59 -18 48 -4 51 -3 61 22 5 15 10 60 10 101 0 84 6 105 29 105 17 0 58 -54 53 -71 -2 -10 22 -39 33 -39 13 0 44 46 45 66 0 11 -14 33 -30 49 -25 24 -28 32 -17 40 8 5 21 24 31 42 23 45 49 57 112 49 55 -6 64 0 64 47 1 22 1 22 12 2 7 -11 11 -35 9 -53z m-261 48 c0 -5 -2 -10 -4 -10 -3 0 -8 5 -11 10 -3 6 -1 10 4 10 6 0 11 -4 11 -10z m-160 -52 c11 -12 20 -27 20 -32 0 -6 -9 0 -19 13 -10 13 -23 21 -30 17 -12 -8 -15 6 -4 17 9 10 10 9 33 -15z m-630 8 c0 -2 -8 -10 -17 -17 -16 -13 -17 -12 -4 4 13 16 21 21 21 13z m-107 -33 c-40 -2 -106 -2 -145 0 -40 1 -8 3 72 3 80 0 112 -2 73 -3z m697 3 c0 -3 -4 -8 -10 -11 -5 -3 -10 -1 -10 4 0 6 5 11 10 11 6 0 10 -2 10 -4z m245 -157 c8 -23 1 -34 -14 -24 -13 8 -15 45 -2 45 5 0 13 -9 16 -21z m-265 7 c0 -3 -5 -8 -12 -12 -7 -4 -8 -3 -4 4 7 12 16 16 16 8z m57 -23 c-4 -3 -7 0 -7 7 0 7 3 10 7 7 3 -4 3 -10 0 -14z m-75 -52 c2 -17 1 -28 -4 -25 -8 5 -12 54 -4 54 2 0 6 -13 8 -29z m125 -8 c-4 -3 -7 0 -7 7 0 7 3 10 7 7 3 -4 3 -10 0 -14z m-23 -17 c-4 -10 -16 -15 -33 -15 -24 2 -24 2 -3 6 13 3 26 11 29 19 3 8 7 13 9 11 3 -2 2 -12 -2 -21z m-87 -43 c-4 -3 -7 0 -7 7 0 7 3 10 7 7 3 -4 3 -10 0 -14z m20 0 c-4 -3 -7 0 -7 7 0 7 3 10 7 7 3 -4 3 -10 0 -14z m40 10 c-4 -3 -10 -3 -14 0 -3 4 0 7 7 7 7 0 10 -3 7 -7z"/>
<path d="M1651 677 c-6 -8 -8 -17 -4 -20 7 -8 33 11 33 24 0 13 -16 11 -29 -4z"/>
</g>
<g id="layer105" fill="#1b2758" stroke="none">
<path d="M0 1300 l0 -1300 1360 0 1360 0 0 1300 0 1300 -1360 0 -1360 0 0 -1300z m1640 1153 c-3 -56 -58 -480 -66 -502 -2 -8 3 -22 12 -32 36 -40 -4 -16 -70 41 -38 33 -78 60 -88 60 -46 0 -135 -65 -163 -120 -19 -37 -27 -119 -17 -171 11 -55 71 -136 202 -269 113 -115 163 -143 325 -180 44 -10 105 -26 135 -35 36 -10 88 -15 151 -14 l96 2 169 82 c341 166 384 267 236 545 -45 83 -55 100 -63 100 -3 0 -5 -44 -3 -97 2 -84 1 -90 -5 -38 -5 33 -14 112 -20 175 -6 63 -16 128 -21 144 -6 16 -9 95 -8 175 l2 146 6 -120 c12 -211 28 -312 57 -358 82 -129 153 -299 153 -365 0 -26 -10 -61 -25 -90 -54 -102 -93 -130 -388 -272 -77 -38 -105 -69 -113 -132 -5 -36 -1 -56 21 -102 15 -31 25 -60 22 -63 -3 -3 0 -22 8 -42 19 -52 25 -158 12 -214 -22 -95 -125 -152 -277 -151 -91 0 -196 30 -213 59 -9 17 -43 20 -52 5 -14 -23 -35 -9 -35 23 0 22 -3 28 -9 18 -11 -17 -41 -7 -41 13 0 8 19 31 42 50 l42 36 -17 35 c-21 44 -21 102 -1 135 15 24 15 24 9 -17 -7 -56 4 -130 17 -111 6 9 7 6 3 -9 -7 -27 18 -43 70 -43 45 0 55 23 55 125 0 84 6 105 29 105 16 -1 51 -40 55 -63 6 -25 19 -47 28 -47 16 0 47 43 48 66 0 11 -14 33 -30 49 -25 24 -28 32 -17 40 8 5 21 24 31 42 23 45 49 57 112 49 55 -6 64 0 64 45 0 11 5 17 10 14 6 -3 10 3 10 15 0 18 -4 20 -35 14 -19 -3 -56 -1 -82 5 -27 6 -64 12 -83 13 -34 3 -35 1 -45 -39 l-10 -41 -40 24 c-38 24 -59 26 -98 9 -13 -6 -16 -4 -11 10 6 13 16 16 53 12 25 -2 56 -8 67 -12 15 -5 23 -2 28 11 12 31 -3 53 -42 59 -72 11 -198 46 -235 65 -47 25 -57 25 -57 2 0 -30 -69 -95 -94 -88 -117 30 -119 30 -168 -3 -49 -33 -92 -40 -101 -17 -7 19 20 55 48 66 41 16 58 52 45 99 -13 48 3 97 46 136 25 23 26 27 14 50 -8 14 -32 44 -55 68 -22 23 -74 81 -114 130 -40 48 -77 87 -81 87 -4 0 -11 -12 -16 -27 -4 -16 -8 -30 -9 -33 -10 -29 -18 -50 -31 -74 -13 -26 -13 -34 3 -78 l17 -48 78 0 c67 0 79 -3 88 -20 11 -20 6 -58 -11 -95 -10 -22 -74 -224 -94 -295 -16 -59 -35 -90 -60 -95 -53 -10 -267 -15 -284 -6 -31 17 -31 36 -1 128 30 90 37 133 21 133 -28 0 -43 171 -21 250 7 27 8 17 4 -45 -5 -88 10 -180 31 -189 22 -8 46 80 41 150 -3 32 -3 50 0 39 3 -11 10 -36 15 -55 12 -44 28 -65 57 -74 27 -9 30 13 5 50 -14 22 -15 33 -4 92 10 50 10 74 2 96 -10 25 -10 27 3 17 7 -6 17 -27 20 -45 4 -23 14 -36 29 -41 21 -7 20 -8 -7 -14 -43 -9 -52 -52 -25 -109 17 -34 19 -45 9 -57 -17 -20 -32 -19 -64 6 l-26 20 -9 -23 c-39 -107 -93 -290 -88 -302 5 -14 28 -16 145 -16 120 0 141 2 153 18 18 21 36 58 44 92 3 14 12 41 19 60 7 19 26 76 41 125 15 50 33 104 41 122 8 17 14 36 14 42 0 22 -44 33 -126 29 -75 -3 -105 3 -72 14 9 3 7 17 -6 52 -17 45 -17 50 -2 85 10 20 18 43 20 51 2 8 11 33 20 54 15 33 16 43 5 65 -7 14 -13 31 -14 36 0 6 -4 13 -10 17 -7 5 -6 8 0 8 6 0 53 -50 105 -112 l95 -111 6 70 c4 38 14 83 22 99 22 43 75 92 114 106 18 7 33 17 33 23 0 24 -140 128 -215 160 -51 21 -139 22 -187 2 -20 -8 -53 -30 -72 -47 -35 -32 -71 -104 -61 -121 4 -5 1 -9 -5 -9 -6 0 -9 -4 -5 -9 3 -5 0 -13 -6 -16 -5 -4 -8 -13 -5 -21 3 -8 1 -14 -5 -14 -6 0 -8 -8 -4 -18 3 -11 0 -50 -6 -88 -6 -38 -14 -91 -18 -119 -4 -27 -15 -63 -24 -80 l-17 -30 0 50 c0 28 6 79 14 115 17 79 31 172 28 184 -2 4 1 13 6 20 5 6 12 24 16 40 9 36 60 113 95 143 30 26 110 53 156 53 95 0 240 -86 442 -260 31 -27 38 -12 53 110 6 58 18 148 26 200 8 52 14 114 14 138 0 23 5 42 10 42 6 0 10 -3 10 -7z m79 -1348 c13 -8 15 -35 2 -35 -5 0 -13 10 -17 22 -7 22 -7 22 -30 -7 -33 -42 -38 -27 -7 25 24 39 27 42 34 23 4 -12 12 -24 18 -28z m-102 -82 c-4 -3 -7 0 -7 7 0 7 3 10 7 7 3 -4 3 -10 0 -14z m298 -94 c8 -23 1 -34 -14 -24 -13 8 -15 45 -2 45 5 0 13 -9 16 -21z m-205 -13 c0 -8 -4 -18 -10 -21 -5 -3 -10 3 -10 14 0 12 5 21 10 21 6 0 10 -6 10 -14z m47 -63 c-4 -3 -7 0 -7 7 0 7 3 10 7 7 3 -4 3 -10 0 -14z m-23 -17 c-4 -10 -18 -16 -38 -16 l-31 0 35 18 c40 21 43 21 34 -2z m-27 -33 c-4 -3 -10 -3 -14 0 -3 4 0 7 7 7 7 0 10 -3 7 -7z"/>
</g>
<g id="layer106" fill="#505050" stroke="none">
<path d="M0 1300 l0 -1300 1360 0 1360 0 0 1300 0 1300 -1360 0 -1360 0 0 -1300z m1640 1153 c-2 -51 -58 -480 -65 -500 -2 -6 5 -19 16 -29 12 -11 16 -21 10 -27 -8 -8 -80 42 -121 83 -43 43 -46 44 -102 13 -97 -52 -120 -91 -126 -213 l-4 -85 58 -74 c91 -115 223 -244 284 -278 61 -33 72 -37 185 -63 44 -10 105 -26 135 -35 37 -10 88 -15 155 -14 89 1 103 4 128 25 16 13 33 24 39 24 5 0 67 28 136 62 102 50 139 73 188 122 91 91 102 160 48 285 -13 29 -24 57 -24 62 0 10 -71 129 -77 129 -3 0 -2 -40 2 -90 6 -75 5 -90 -7 -90 -12 0 -17 30 -26 143 -6 78 -16 165 -21 192 -16 81 -26 365 -13 365 7 0 12 -41 15 -117 6 -193 24 -308 54 -356 82 -129 153 -299 153 -365 0 -26 -10 -61 -25 -90 -54 -102 -93 -130 -388 -272 -77 -38 -105 -69 -113 -132 -5 -36 -1 -56 21 -102 15 -31 25 -60 22 -63 -3 -3 0 -22 8 -42 19 -52 25 -158 12 -214 -22 -95 -125 -152 -277 -151 -91 0 -196 30 -213 59 -9 17 -43 20 -52 5 -14 -23 -35 -9 -35 23 0 22 -3 28 -9 18 -11 -17 -41 -7 -41 13 0 8 19 31 42 50 l42 36 -17 35 c-18 38 -21 73 -11 124 10 47 28 39 20 -9 -8 -51 3 -127 16 -108 6 9 7 6 3 -9 -7 -27 18 -43 70 -43 45 0 55 23 55 125 0 84 6 105 29 105 16 -1 51 -40 55 -63 6 -25 19 -47 28 -47 16 0 47 43 48 66 0 11 -14 33 -30 49 -25 24 -28 32 -17 40 8 5 21 24 31 42 23 45 49 57 112 49 55 -6 64 0 64 45 0 11 5 17 10 14 6 -3 10 3 10 15 0 18 -4 20 -35 14 -19 -3 -56 -1 -82 5 -27 6 -64 12 -83 13 -34 3 -35 1 -45 -39 l-10 -41 -40 24 c-38 24 -59 26 -98 9 -13 -6 -16 -4 -11 10 6 13 16 16 53 12 25 -2 56 -8 67 -12 15 -5 23 -2 28 11 12 31 -3 53 -42 59 -72 11 -198 46 -235 65 -47 25 -57 25 -57 2 0 -30 -69 -95 -94 -88 -117 30 -119 30 -168 -3 -49 -33 -92 -40 -101 -17 -7 19 20 55 48 66 41 16 58 52 45 99 -13 48 3 97 46 136 25 23 26 27 14 50 -8 14 -32 44 -55 68 -22 23 -74 81 -114 130 -40 48 -77 87 -81 87 -4 0 -11 -12 -16 -27 -4 -16 -8 -30 -9 -33 -10 -29 -18 -50 -31 -74 -13 -26 -13 -34 3 -78 l17 -48 78 0 c67 0 79 -3 88 -20 11 -20 6 -58 -11 -95 -10 -22 -74 -224 -94 -295 -16 -59 -35 -90 -60 -95 -53 -10 -267 -15 -284 -6 -31 17 -31 36 -1 128 30 90 37 133 21 133 -28 0 -43 171 -21 250 7 27 8 17 4 -45 -5 -88 10 -180 31 -189 22 -8 46 80 41 150 -3 32 -3 50 0 39 3 -11 10 -36 15 -55 12 -44 28 -65 57 -74 27 -9 30 13 5 50 -14 22 -15 33 -4 92 10 50 10 74 2 96 -10 25 -10 27 3 17 7 -6 17 -27 20 -45 4 -23 14 -36 29 -41 21 -7 20 -8 -7 -14 -42 -9 -53 -53 -25 -98 40 -65 3 -107 -55 -62 l-26 20 -9 -23 c-39 -107 -93 -290 -88 -302 5 -14 28 -16 145 -16 120 0 141 2 153 18 18 21 36 58 44 92 3 14 12 41 19 60 7 19 26 76 41 125 15 50 33 104 41 122 8 17 14 36 14 42 0 22 -44 33 -126 29 -75 -3 -105 3 -72 14 9 3 7 17 -6 52 -17 45 -17 50 -2 85 10 20 18 43 20 51 2 8 11 33 20 54 15 33 16 43 5 65 -7 14 -13 31 -14 36 0 6 -4 13 -10 17 -7 5 -6 8 0 8 6 0 53 -50 105 -112 l95 -111 6 70 c4 38 14 83 22 99 22 43 75 92 114 106 18 7 33 17 33 23 0 24 -140 128 -215 160 -51 21 -139 22 -187 2 -20 -8 -53 -30 -72 -47 -35 -32 -71 -104 -61 -121 4 -5 1 -9 -5 -9 -6 0 -9 -4 -5 -9 3 -5 0 -13 -6 -16 -5 -4 -8 -13 -5 -21 3 -8 1 -14 -5 -14 -6 0 -8 -8 -4 -18 3 -11 0 -50 -6 -88 -6 -38 -14 -91 -18 -119 -4 -27 -15 -63 -24 -80 l-17 -30 0 50 c0 28 6 79 14 115 17 79 31 172 28 184 -2 4 1 13 6 20 5 6 12 24 16 40 9 36 60 113 95 143 30 26 110 53 156 53 95 0 240 -86 442 -260 31 -27 38 -12 53 110 6 58 18 148 26 200 8 52 14 114 14 138 0 23 5 42 10 42 6 0 10 -3 10 -7z m79 -1348 c13 -8 15 -35 2 -35 -5 0 -13 10 -17 22 -7 22 -7 22 -30 -7 -33 -42 -38 -27 -7 25 24 39 27 42 34 23 4 -12 12 -24 18 -28z m-102 -82 c-4 -3 -7 0 -7 7 0 7 3 10 7 7 3 -4 3 -10 0 -14z m298 -94 c8 -23 1 -34 -14 -24 -13 8 -15 45 -2 45 5 0 13 -9 16 -21z m-205 -13 c0 -8 -4 -18 -10 -21 -5 -3 -10 3 -10 14 0 12 5 21 10 21 6 0 10 -6 10 -14z m47 -63 c-4 -3 -7 0 -7 7 0 7 3 10 7 7 3 -4 3 -10 0 -14z m-23 -17 c-4 -10 -18 -16 -38 -16 l-31 0 35 18 c40 21 43 21 34 -2z m-27 -33 c-4 -3 -10 -3 -14 0 -3 4 0 7 7 7 7 0 10 -3 7 -7z"/>
<path d="M1322 1497 c-36 -37 -56 -107 -31 -107 8 0 20 14 26 30 6 17 17 30 23 30 6 0 10 -3 8 -7 -46 -99 -74 -147 -94 -161 -57 -40 -67 -49 -60 -60 10 -17 64 10 112 57 46 45 60 52 44 22 -5 -11 -10 -22 -10 -25 0 -12 24 -6 42 11 17 15 18 15 18 -5 0 -25 10 -28 29 -9 10 10 14 9 22 -6 14 -25 42 -7 68 43 l21 40 -37 32 c-21 18 -62 59 -93 91 l-56 57 -32 -33z"/>
<path d="M1631 714 c-15 -8 -19 -14 -11 -19 6 -4 16 -2 23 4 7 5 42 11 77 13 l65 3 -66 5 c-39 3 -75 0 -88 -6z"/>
<path d="M1657 683 c-4 -3 -7 -13 -7 -21 0 -12 3 -12 15 -2 8 7 15 16 15 21 0 11 -14 12 -23 2z"/>
</g>
<g id="layer107" fill="#3d53ae" stroke="none">
<path d="M0 1300 l0 -1300 1360 0 1360 0 0 1300 0 1300 -1360 0 -1360 0 0 -1300z m1646 1143 c-4 -10 -14 -80 -22 -156 -8 -76 -18 -157 -23 -180 -21 -98 -23 -168 -6 -187 11 -12 13 -20 6 -25 -9 -5 -85 49 -121 85 -43 43 -46 44 -102 13 -101 -54 -123 -92 -123 -220 0 -72 3 -95 16 -105 8 -7 31 -33 50 -58 57 -75 71 -91 144 -165 82 -82 160 -126 265 -150 41 -10 104 -27 140 -38 40 -12 104 -22 167 -25 94 -4 104 -2 150 22 26 14 107 53 178 88 107 51 141 72 191 122 91 91 102 160 48 285 -13 29 -24 57 -24 62 0 10 -71 129 -77 129 -3 0 -2 -40 2 -90 6 -75 5 -90 -7 -90 -12 0 -17 30 -26 143 -6 78 -16 165 -21 192 -17 84 -26 365 -13 365 8 0 12 -22 12 -62 0 -35 7 -130 16 -213 16 -149 17 -151 63 -230 124 -214 156 -332 112 -421 -48 -95 -141 -162 -361 -261 -98 -45 -134 -76 -144 -127 -10 -47 -7 -69 13 -107 42 -77 68 -247 50 -328 -13 -63 -53 -103 -128 -133 -108 -41 -306 -22 -372 38 -13 12 -22 13 -38 5 -32 -18 -41 -13 -41 22 0 22 -3 28 -9 18 -11 -17 -41 -7 -41 13 0 8 19 31 42 50 l42 36 -17 29 c-20 34 -22 93 -5 157 11 41 11 47 -5 55 -24 14 -21 42 8 69 14 13 25 28 25 34 0 6 16 30 36 54 34 39 40 42 85 42 26 0 51 -4 54 -10 11 -18 32 -11 38 12 8 30 -8 46 -52 53 -118 20 -180 39 -263 83 -4 2 -14 -12 -21 -30 -8 -18 -26 -44 -40 -57 l-27 -24 -77 15 -78 15 -37 -29 c-28 -22 -46 -28 -70 -26 -41 4 -48 30 -17 55 13 10 38 32 55 49 31 29 32 32 22 70 -14 53 -6 81 37 131 l36 42 -127 151 c-69 82 -129 150 -133 150 -7 0 -50 -120 -58 -163 -3 -15 2 -42 12 -63 l17 -36 53 7 c70 8 104 -1 111 -32 4 -15 -10 -76 -41 -171 -26 -81 -54 -169 -62 -197 -21 -70 -34 -95 -58 -108 -11 -6 -80 -13 -153 -15 -117 -4 -135 -3 -152 13 -26 23 -26 27 11 135 l30 92 -22 46 c-30 65 -35 129 -16 236 18 100 32 191 48 306 30 217 126 330 280 330 100 0 176 -40 368 -194 52 -42 98 -76 103 -76 4 0 9 15 12 33 19 121 27 179 42 315 14 115 21 152 32 152 9 0 12 -6 8 -17z"/>
<path d="M1002 2198 c-61 -21 -156 -138 -136 -169 3 -5 1 -9 -4 -9 -5 0 -9 -6 -10 -12 -1 -14 -10 -53 -12 -53 0 0 -3 -31 -6 -68 -3 -37 -9 -79 -14 -93 -6 -14 -10 -41 -10 -60 0 -19 -9 -53 -20 -75 -36 -70 -29 -299 8 -299 5 0 16 22 25 48 14 39 16 57 8 93 -13 55 -13 59 -1 59 5 0 12 -17 16 -37 7 -44 38 -99 59 -107 23 -8 26 9 9 44 -12 24 -15 43 -9 78 10 58 10 99 1 132 l-8 25 21 -25 c11 -14 21 -37 21 -52 0 -21 5 -28 19 -28 11 0 23 -4 26 -10 3 -6 -4 -10 -17 -10 -13 0 -29 -5 -36 -12 -17 -17 -15 -64 4 -93 35 -54 -12 -100 -58 -58 -11 10 -22 13 -27 7 -16 -17 -101 -293 -95 -308 5 -13 28 -16 144 -16 118 0 139 2 152 18 17 20 48 95 48 118 0 9 6 30 14 47 12 28 32 91 76 234 20 65 9 72 -101 67 -50 -2 -89 0 -89 5 0 5 5 11 11 13 8 3 6 16 -5 42 -20 48 -20 66 -1 102 8 16 15 37 15 46 0 9 4 19 9 23 5 3 15 21 21 41 11 32 10 39 -9 65 -22 29 -27 49 -13 49 4 0 48 -47 97 -105 49 -58 92 -105 95 -105 4 0 10 31 12 68 4 52 11 78 32 109 26 39 78 81 119 96 9 3 17 11 17 16 0 14 -159 130 -210 152 -36 16 -149 20 -188 7z"/>
</g>
<g id="layer108" fill="#6e6e6f" stroke="none">
<path d="M0 1300 l0 -1300 1360 0 1360 0 0 1300 0 1300 -1360 0 -1360 0 0 -1300z m1646 1143 c-4 -10 -14 -80 -22 -156 -8 -76 -18 -157 -23 -180 -5 -23 -12 -72 -16 -108 -5 -53 -3 -68 9 -78 9 -8 16 -17 16 -22 0 -17 -27 -9 -54 16 -70 64 -120 96 -145 90 -49 -12 -119 -68 -138 -109 -23 -51 -24 -210 -1 -229 8 -7 30 -32 49 -57 57 -75 71 -91 144 -165 82 -82 160 -126 265 -150 41 -10 104 -27 140 -38 38 -12 105 -22 162 -25 l98 -4 182 90 c195 96 240 127 288 200 53 80 39 177 -52 349 -16 32 -34 62 -39 67 -4 5 -5 -32 -2 -81 4 -63 2 -92 -6 -97 -16 -10 -18 3 -30 149 -6 72 -15 153 -20 180 -17 84 -26 375 -13 375 8 0 12 -22 12 -62 0 -35 7 -130 16 -213 16 -149 17 -151 63 -230 124 -214 156 -332 112 -421 -48 -95 -141 -162 -361 -261 -98 -45 -134 -76 -144 -127 -10 -47 -7 -69 13 -107 50 -94 72 -300 38 -369 -19 -40 -82 -85 -142 -102 -68 -20 -202 -15 -269 10 -32 12 -67 29 -77 38 -13 12 -22 13 -38 5 -32 -18 -41 -13 -41 22 0 22 -3 28 -9 18 -11 -17 -41 -7 -41 13 0 8 19 31 42 50 l42 36 -17 29 c-19 32 -24 146 -7 156 15 10 12 52 -5 59 -23 8 -18 40 10 66 14 13 25 28 25 34 0 6 16 30 36 54 34 39 40 42 85 42 26 0 51 -4 54 -10 11 -18 32 -11 38 12 8 30 -8 46 -52 53 -118 20 -180 39 -263 83 -4 2 -14 -12 -21 -30 -8 -18 -26 -44 -40 -57 l-27 -24 -77 15 -78 15 -37 -29 c-28 -22 -46 -28 -70 -26 -41 4 -48 30 -17 55 13 10 38 32 55 49 31 29 32 32 22 70 -14 53 -6 81 37 131 l36 42 -127 151 c-69 82 -129 150 -133 150 -7 0 -50 -120 -58 -163 -3 -15 2 -42 12 -63 l17 -36 53 7 c70 8 104 -1 111 -32 4 -15 -10 -76 -41 -171 -26 -81 -54 -169 -62 -197 -21 -70 -34 -95 -58 -108 -11 -6 -80 -13 -153 -15 -117 -4 -135 -3 -152 13 -26 23 -26 27 11 135 l30 92 -22 46 c-30 65 -35 129 -16 236 18 100 32 191 48 306 30 217 126 330 280 330 100 0 176 -40 368 -194 52 -42 98 -76 103 -76 4 0 9 15 12 33 19 121 27 179 42 315 14 115 21 152 32 152 9 0 12 -6 8 -17z"/>
<path d="M1002 2198 c-61 -21 -156 -138 -136 -169 3 -5 1 -9 -4 -9 -5 0 -9 -6 -10 -12 -1 -14 -10 -53 -12 -53 0 0 -3 -31 -6 -68 -3 -37 -9 -79 -14 -93 -6 -14 -10 -41 -10 -60 0 -19 -9 -53 -20 -75 -36 -70 -29 -299 8 -299 5 0 16 22 25 48 14 39 16 57 8 93 -13 55 -13 59 -1 59 5 0 12 -17 16 -37 7 -44 38 -99 59 -107 23 -8 26 9 9 44 -12 24 -15 43 -9 78 10 58 10 99 1 132 l-8 25 21 -25 c11 -14 21 -37 21 -52 0 -21 5 -28 19 -28 11 0 23 -4 26 -10 3 -6 -4 -10 -18 -10 -48 0 -58 -41 -27 -116 8 -17 10 -38 7 -48 -8 -21 -45 -21 -69 1 -11 10 -22 13 -27 7 -16 -17 -101 -293 -95 -308 5 -13 28 -16 144 -16 118 0 139 2 152 18 17 20 48 95 48 118 0 9 6 30 14 47 12 28 32 91 76 234 20 65 9 72 -101 67 -50 -2 -89 0 -89 5 0 5 5 11 11 13 8 3 6 16 -5 42 -20 48 -20 66 -1 102 8 16 15 37 15 46 0 9 4 19 9 23 5 3 15 21 21 41 11 32 10 39 -9 65 -22 29 -27 49 -13 49 4 0 48 -47 97 -105 49 -58 92 -105 95 -105 4 0 10 31 12 68 4 52 11 78 32 109 26 39 78 81 119 96 9 3 17 11 17 16 0 14 -159 130 -210 152 -36 16 -149 20 -188 7z"/>
<path d="M1326 1499 c-40 -44 -60 -109 -35 -109 6 0 16 13 22 30 13 35 37 48 37 21 0 -11 -3 -21 -7 -23 -5 -1 -19 -25 -32 -53 -27 -55 -68 -105 -87 -105 -12 0 -28 -29 -21 -37 11 -10 67 23 110 65 28 28 47 40 47 31 0 -8 -5 -20 -12 -27 -20 -20 0 -26 27 -8 24 16 25 16 25 -4 0 -23 10 -26 28 -8 10 10 15 10 22 -2 13 -21 40 -3 63 42 l18 36 -90 91 -89 90 -26 -30z"/>
<path d="M1889 1188 c-16 -55 -14 -54 -45 -29 -32 25 -74 27 -114 6 -34 -17 -37 -29 -15 -51 8 -9 15 -25 15 -37 l-1 -22 -19 24 -20 23 -30 -32 c-31 -33 -37 -54 -20 -65 6 -3 10 -50 10 -106 0 -74 3 -98 12 -93 8 5 9 2 5 -9 -3 -10 -2 -17 4 -17 6 0 8 -4 5 -9 -8 -12 18 -21 60 -21 44 0 54 24 54 125 0 84 6 105 29 105 16 -1 51 -41 55 -63 1 -7 7 -21 13 -32 11 -20 12 -19 37 4 34 32 33 61 -4 96 -25 24 -28 32 -17 40 8 5 21 24 31 42 23 45 49 57 112 49 55 -6 64 0 64 45 0 10 5 19 10 19 6 0 10 5 10 10 0 6 -24 10 -52 10 -29 0 -69 4 -88 9 -93 24 -88 25 -101 -21z m26 -259 c8 -23 1 -34 -14 -24 -13 8 -15 45 -2 45 5 0 13 -9 16 -21z m-205 -14 c0 -14 -4 -25 -10 -25 -11 0 -14 33 -3 43 11 11 13 8 13 -18z m41 -49 c14 9 10 -4 -8 -26 -18 -20 -73 -28 -73 -10 0 6 12 10 26 10 18 0 28 6 32 22 3 12 7 17 10 10 2 -7 8 -10 13 -6z m-44 -63 c-4 -3 -10 -3 -14 0 -3 4 0 7 7 7 7 0 10 -3 7 -7z"/>
<path d="M1653 675 c-9 -25 4 -29 17 -6 7 15 7 21 0 21 -6 0 -13 -7 -17 -15z"/>
</g>
<g id="layer109" fill="#3150cf" stroke="none">
<path d="M0 1300 l0 -1300 1360 0 1360 0 0 1300 0 1300 -1360 0 -1360 0 0 -1300z m1647 1138 c-3 -13 -10 -61 -16 -108 -21 -163 -32 -246 -42 -319 -8 -62 -7 -76 6 -91 34 -37 1 -42 -39 -5 -70 64 -120 96 -145 90 -47 -12 -119 -68 -135 -104 -21 -48 -28 -116 -19 -173 9 -54 92 -167 209 -283 83 -83 160 -126 269 -150 44 -10 115 -28 158 -41 55 -17 103 -24 160 -24 l81 0 181 89 c192 95 237 126 285 199 53 80 39 177 -52 349 -16 32 -34 62 -39 67 -4 5 -5 -32 -2 -81 4 -63 2 -92 -6 -97 -16 -10 -18 3 -30 149 -6 72 -15 153 -20 180 -6 28 -13 123 -17 213 -6 141 -5 162 8 162 13 0 15 -17 16 -92 2 -178 21 -318 49 -368 51 -89 102 -192 129 -260 52 -134 21 -240 -99 -329 -53 -40 -102 -66 -267 -145 -53 -25 -103 -56 -113 -70 -29 -42 -33 -108 -9 -155 34 -65 55 -159 56 -256 1 -77 -2 -95 -21 -126 -49 -78 -201 -123 -336 -99 -72 12 -118 30 -149 57 -12 11 -21 12 -37 4 -32 -18 -41 -13 -42 22 0 17 -3 26 -6 20 -2 -7 -13 -13 -24 -13 -33 0 -22 36 23 74 l42 36 -17 29 c-20 34 -23 131 -5 160 11 19 8 32 -14 63 -9 12 -10 22 -3 32 6 7 26 38 46 67 51 76 71 91 119 91 23 -1 48 -6 55 -12 19 -16 35 -4 35 25 0 26 -27 38 -108 49 -58 9 -163 45 -185 64 -16 14 -19 14 -27 2 -6 -8 -10 -20 -10 -26 0 -5 -15 -25 -34 -43 l-33 -32 -81 12 -81 12 -36 -27 c-40 -31 -97 -33 -103 -4 -3 17 6 28 66 75 32 25 33 27 26 83 -7 62 1 86 44 132 20 21 23 32 16 47 -16 36 -237 292 -244 284 -4 -4 -15 -33 -26 -63 -10 -30 -22 -59 -26 -64 -11 -14 -10 -44 4 -83 l12 -33 71 0 c38 0 75 -4 81 -8 20 -14 32 -46 24 -66 -5 -12 -33 -102 -64 -201 -31 -99 -62 -191 -69 -205 -21 -42 -52 -50 -194 -50 -181 0 -183 2 -133 151 l29 88 -24 56 c-29 65 -32 137 -11 235 8 36 20 103 26 150 35 251 45 293 86 356 36 57 81 95 133 113 53 17 150 13 198 -9 50 -22 150 -88 213 -140 91 -76 139 -109 144 -101 3 5 12 55 20 112 38 271 46 329 46 353 0 17 5 26 16 26 12 0 15 -6 11 -22z"/>
</g>
<g id="layer110" fill="#818180" stroke="none">
<path d="M0 1300 l0 -1300 1360 0 1360 0 0 1300 0 1300 -1360 0 -1360 0 0 -1300z m1647 1138 c-3 -13 -10 -61 -16 -108 -21 -163 -32 -246 -42 -319 -9 -64 -8 -76 7 -92 13 -15 15 -22 6 -31 -9 -9 -20 -5 -44 19 -18 17 -55 47 -81 67 l-48 36 -47 -24 c-97 -50 -122 -94 -122 -218 l0 -83 72 -90 c156 -194 253 -266 403 -300 44 -10 115 -28 158 -41 57 -18 102 -24 167 -24 80 0 91 2 118 25 17 14 34 25 38 25 23 0 294 144 325 173 52 48 89 119 89 171 0 50 -48 177 -105 276 -13 23 -14 17 -8 -57 5 -72 4 -83 -11 -89 -9 -4 -20 -3 -24 1 -4 3 -10 55 -14 113 -3 59 -14 166 -24 237 -10 72 -18 179 -18 240 -1 93 1 110 15 113 14 3 16 -10 17 -90 2 -178 21 -318 49 -368 51 -89 102 -192 129 -260 52 -134 21 -240 -99 -329 -53 -40 -102 -66 -267 -145 -53 -25 -103 -56 -113 -70 -29 -42 -33 -108 -9 -155 34 -65 55 -159 56 -256 1 -77 -2 -95 -21 -126 -49 -78 -201 -123 -336 -99 -72 12 -118 30 -149 57 -12 11 -21 12 -37 4 -32 -18 -41 -13 -42 22 0 17 -3 26 -6 20 -2 -7 -13 -13 -24 -13 -33 0 -22 36 23 74 l42 36 -17 29 c-20 34 -23 131 -5 160 11 19 8 32 -14 63 -9 12 -10 22 -3 32 6 7 26 38 46 67 51 76 71 91 119 91 23 -1 48 -6 55 -12 19 -16 35 -4 35 25 0 26 -27 38 -108 49 -58 9 -163 45 -185 64 -16 14 -19 14 -27 2 -6 -8 -10 -20 -10 -26 0 -5 -15 -25 -34 -43 l-33 -32 -81 12 -81 12 -36 -27 c-40 -31 -97 -33 -103 -4 -3 17 6 28 66 75 32 25 33 27 26 83 -7 62 1 86 44 132 20 21 23 32 16 47 -16 36 -237 292 -244 284 -4 -4 -15 -33 -26 -63 -10 -30 -22 -59 -26 -64 -11 -14 -10 -44 4 -83 l12 -33 71 0 c38 0 75 -4 81 -8 20 -14 32 -46 24 -66 -5 -12 -33 -102 -64 -201 -31 -99 -62 -191 -69 -205 -21 -42 -52 -50 -194 -50 -181 0 -183 2 -133 151 l29 88 -24 56 c-29 65 -32 137 -11 235 8 36 20 103 26 150 35 251 45 293 86 356 36 57 81 95 133 113 53 17 150 13 198 -9 50 -22 150 -88 213 -140 91 -76 139 -109 144 -101 3 5 12 55 20 112 38 271 46 329 46 353 0 17 5 26 16 26 12 0 15 -6 11 -22z"/>
<path d="M1007 2196 c-20 -8 -45 -20 -54 -27 -49 -39 -100 -120 -87 -140 3 -5 1 -9 -4 -9 -5 0 -9 -6 -10 -12 -1 -14 -10 -53 -12 -53 0 0 -3 -31 -6 -68 -3 -37 -9 -79 -14 -93 -6 -14 -10 -42 -10 -63 0 -20 -8 -53 -19 -74 -32 -63 -27 -297 7 -297 5 0 16 24 25 54 13 40 15 60 7 81 -13 33 -13 65 0 65 5 0 12 -11 15 -25 3 -14 7 -35 10 -48 6 -29 52 -80 64 -72 6 3 1 25 -10 50 -19 43 -19 47 -3 99 15 49 15 56 1 85 -8 17 -12 33 -7 36 12 8 40 -36 40 -62 0 -29 44 -50 66 -32 11 9 11 17 -1 46 -19 45 -19 63 0 99 8 16 15 37 15 46 0 9 4 19 9 23 5 3 15 21 21 41 11 32 10 39 -9 65 -22 29 -27 49 -13 49 4 0 48 -47 97 -105 49 -58 91 -105 94 -105 3 0 7 22 7 49 3 100 53 179 134 216 22 10 40 21 40 25 0 10 -25 30 -115 92 -110 75 -193 94 -278 64z"/>
<path d="M928 1544 c-9 -20 -9 -32 1 -57 8 -18 14 -45 15 -62 1 -26 -3 -30 -27 -33 -19 -2 -33 3 -42 15 -7 10 -17 15 -21 11 -3 -4 -29 -73 -56 -154 -38 -113 -46 -149 -37 -160 18 -22 251 -20 284 2 14 9 25 22 25 30 0 7 6 28 14 46 8 18 26 74 41 123 15 50 38 124 52 165 13 41 21 80 19 87 -4 10 -38 13 -131 13 -125 0 -125 0 -137 -26z"/>
<path d="M1318 1488 c-14 -18 -28 -45 -31 -60 -10 -39 12 -46 26 -9 11 31 37 50 37 28 0 -7 -17 -45 -37 -86 -27 -53 -48 -80 -75 -98 -21 -13 -38 -27 -38 -32 0 -19 55 5 94 41 70 67 70 67 61 28 l-7 -34 25 17 c34 22 36 21 29 -5 -5 -22 -5 -22 21 -5 25 16 31 15 28 -5 0 -5 5 -8 12 -8 18 0 43 28 56 62 10 26 6 32 -76 113 -47 47 -90 85 -93 85 -4 0 -19 -15 -32 -32z"/>
<path d="M1894 1194 c-8 -19 -14 -37 -13 -41 4 -22 -4 -22 -38 2 -47 31 -84 32 -119 1 -26 -22 -27 -24 -11 -40 9 -10 17 -27 17 -39 l-1 -22 -19 23 -19 23 -30 -33 c-33 -36 -38 -54 -18 -61 9 -3 11 -31 9 -106 -3 -80 -1 -101 9 -95 9 5 10 2 6 -9 -3 -10 -2 -17 4 -17 6 0 8 -4 5 -9 -8 -12 18 -21 60 -21 44 0 54 24 54 125 0 84 6 105 29 105 15 0 61 -56 61 -76 0 -5 5 -16 10 -24 7 -12 13 -11 34 10 34 31 33 60 -4 95 -25 24 -28 32 -17 40 8 5 21 24 31 42 23 45 49 57 112 49 52 -6 54 -5 59 21 4 16 10 36 16 46 8 15 3 17 -49 17 -32 0 -82 6 -111 14 l-53 14 -14 -34z m21 -265 c8 -23 1 -34 -14 -24 -13 8 -15 45 -2 45 5 0 13 -9 16 -21z m-205 -14 c0 -14 -4 -25 -10 -25 -5 0 -10 11 -10 25 0 14 5 25 10 25 6 0 10 -11 10 -25z m41 -49 c15 9 10 -8 -8 -28 -16 -18 -73 -26 -73 -9 0 5 14 11 30 15 19 3 30 12 31 23 0 11 3 13 6 5 2 -6 9 -10 14 -6z m-44 -63 c-4 -3 -10 -3 -14 0 -3 4 0 7 7 7 7 0 10 -3 7 -7z"/>
<path d="M1633 713 c-9 -7 -14 -16 -10 -19 4 -4 12 -2 20 4 7 6 42 12 77 14 l65 3 -67 5 c-45 3 -73 1 -85 -7z"/>
<path d="M1650 664 c0 -8 5 -12 10 -9 6 3 10 10 10 16 0 5 -4 9 -10 9 -5 0 -10 -7 -10 -16z"/>
</g>
<g id="layer111" fill="#395ffe" stroke="none">
<path d="M0 1300 l0 -1300 1360 0 1360 0 0 1300 0 1300 -1360 0 -1360 0 0 -1300z m1643 1109 c-1 -30 -6 -83 -12 -119 -6 -36 -19 -130 -29 -210 -17 -129 -17 -147 -4 -163 12 -13 13 -20 4 -29 -9 -9 -20 -5 -44 19 -18 17 -55 47 -81 67 l-48 36 -47 -24 c-97 -50 -122 -94 -122 -219 0 -77 2 -85 28 -113 15 -16 54 -62 86 -102 118 -146 235 -228 359 -252 31 -6 103 -25 159 -41 138 -39 243 -41 286 -4 17 14 34 25 38 25 23 0 294 144 325 173 52 48 89 119 89 171 0 50 -48 177 -105 276 -13 23 -14 17 -8 -57 5 -72 4 -83 -11 -89 -9 -4 -20 -3 -24 1 -4 3 -10 55 -14 113 -3 59 -14 161 -23 227 -23 172 -30 342 -15 360 7 8 16 13 20 10 4 -2 10 -75 14 -162 8 -196 23 -264 73 -350 87 -148 124 -246 125 -329 1 -139 -89 -225 -366 -349 -118 -54 -154 -86 -162 -148 -5 -35 -1 -55 24 -108 39 -84 41 -91 47 -179 9 -111 -1 -160 -38 -201 -43 -46 -88 -66 -175 -80 -107 -18 -263 13 -297 59 -9 11 -16 11 -39 1 -32 -15 -46 -2 -40 35 2 11 2 15 -2 9 -7 -15 -40 -17 -49 -3 -8 12 33 67 56 75 20 7 32 42 16 48 -15 5 -23 145 -9 159 12 12 -4 68 -19 68 -18 0 -9 39 14 57 12 10 31 34 41 53 41 72 102 102 161 80 18 -7 32 -7 38 -1 20 20 -3 40 -60 51 -97 20 -156 37 -201 60 -24 12 -45 20 -46 18 -28 -47 -63 -89 -77 -93 -18 -6 -115 1 -150 11 -9 3 -30 -6 -45 -19 -38 -32 -84 -42 -109 -23 -17 12 -18 17 -7 37 7 13 31 35 53 49 37 23 44 35 40 70 -8 79 -2 103 35 141 23 24 34 43 31 53 -11 27 -229 286 -242 286 -6 0 -20 -27 -30 -60 -10 -34 -22 -63 -27 -66 -11 -7 -10 -48 1 -59 5 -6 11 -19 13 -30 3 -18 13 -21 83 -25 74 -5 81 -7 92 -31 11 -23 7 -45 -38 -185 -27 -88 -56 -174 -64 -192 -8 -18 -15 -42 -15 -53 0 -11 -11 -30 -25 -43 -23 -22 -38 -24 -166 -31 -128 -7 -142 -6 -160 11 -18 16 -20 26 -14 68 3 27 12 61 20 75 27 53 28 95 5 147 -20 43 -22 60 -17 149 3 55 10 114 15 130 6 17 16 64 22 105 37 258 41 275 71 335 38 72 60 95 119 126 56 29 164 32 225 5 63 -27 221 -139 316 -224 21 -18 39 -29 42 -25 2 4 12 69 22 143 9 74 23 181 31 238 8 56 14 107 14 113 0 6 6 9 13 6 8 -3 11 -22 10 -58z"/>
</g>
<g id="layer112" fill="#7d84a2" stroke="none">
<path d="M0 1300 l0 -1300 1360 0 1360 0 0 1300 0 1300 -1360 0 -1360 0 0 -1300z m1643 1109 c-1 -30 -6 -83 -12 -119 -8 -54 -18 -128 -44 -349 -2 -17 29 -38 40 -27 4 4 13 62 20 129 6 67 16 160 22 207 6 47 11 111 12 143 1 31 5 59 9 62 4 2 178 5 386 5 l379 1 7 -148 c9 -189 23 -265 61 -333 108 -193 138 -271 139 -354 1 -141 -88 -227 -366 -351 -118 -54 -154 -86 -162 -148 -5 -35 -1 -55 24 -108 39 -84 41 -91 47 -179 9 -111 -1 -160 -38 -201 -43 -46 -88 -66 -175 -80 -107 -18 -263 13 -297 59 -9 11 -16 11 -39 1 -32 -15 -46 -2 -40 35 2 11 2 15 -2 9 -7 -15 -40 -17 -49 -3 -8 12 33 67 56 75 20 7 32 42 16 48 -15 5 -23 145 -9 159 12 12 -4 68 -19 68 -18 0 -9 39 14 57 12 10 31 34 41 53 41 72 102 102 161 80 18 -7 32 -7 38 -1 20 20 -3 40 -60 51 -97 20 -156 37 -201 60 -24 12 -45 20 -46 18 -28 -47 -63 -89 -77 -93 -18 -6 -115 1 -150 11 -9 3 -30 -6 -45 -19 -38 -32 -84 -42 -109 -23 -17 12 -18 17 -7 37 7 13 31 35 53 49 37 23 44 35 40 70 -8 79 -2 103 35 141 23 24 34 43 31 53 -11 27 -229 286 -242 286 -6 0 -20 -27 -30 -60 -10 -34 -22 -63 -27 -66 -11 -7 -10 -48 1 -59 5 -6 11 -19 13 -30 3 -18 13 -21 83 -25 74 -5 81 -7 92 -31 11 -23 7 -45 -38 -185 -27 -88 -56 -174 -64 -192 -8 -18 -15 -42 -15 -53 0 -11 -11 -30 -25 -43 -23 -22 -38 -24 -166 -31 -128 -7 -142 -6 -160 11 -18 16 -20 26 -14 68 3 27 12 61 20 75 27 53 28 95 5 147 -20 43 -22 60 -17 149 3 55 10 114 15 130 6 17 16 64 22 105 37 258 41 275 71 335 38 72 60 95 119 126 56 29 164 32 225 5 63 -27 221 -139 316 -224 21 -18 39 -29 42 -25 2 4 12 69 22 143 9 74 23 181 31 238 8 56 14 107 14 113 0 6 6 9 13 6 8 -3 11 -22 10 -58z"/>
<path d="M1260 1697 c0 -7 12 -26 28 -43 15 -16 54 -62 86 -102 118 -146 235 -228 359 -252 31 -6 103 -25 159 -41 127 -36 278 -41 278 -9 0 5 -33 8 -72 8 -77 -1 -289 39 -393 74 -74 25 -165 68 -165 80 0 4 -7 8 -15 8 -8 0 -15 7 -15 15 0 8 -7 15 -15 15 -8 0 -15 7 -15 15 0 8 -3 15 -8 15 -12 0 -72 57 -72 69 0 5 -10 18 -23 28 -13 10 -42 44 -66 76 -46 60 -51 65 -51 44z"/>
<path d="M964 1563 c-26 -3 -33 -10 -38 -34 -3 -19 0 -42 10 -60 23 -46 15 -73 -22 -77 -19 -2 -36 3 -44 13 -12 14 -17 7 -42 -62 -15 -43 -28 -85 -28 -93 0 -8 -7 -28 -16 -45 -8 -16 -16 -48 -17 -70 l-2 -40 132 0 c119 0 134 2 152 20 28 29 145 386 139 426 -3 23 -6 24 -98 25 -52 1 -109 -1 -126 -3z"/>
</g>
<g id="layer113" fill="#718bff" stroke="none">
<path d="M0 1300 l0 -1300 1360 0 1360 0 0 1300 0 1300 -1360 0 -1360 0 0 -1300z m1643 1109 c-1 -30 -6 -83 -12 -119 -16 -104 -41 -313 -41 -341 0 -25 25 -47 39 -33 3 3 11 60 18 127 6 67 16 160 22 207 6 47 11 111 12 143 1 31 5 59 9 62 4 2 178 5 386 5 l379 1 7 -148 c9 -189 23 -265 61 -333 65 -116 80 -147 109 -219 78 -195 6 -328 -242 -443 -30 -15 -90 -42 -132 -62 -127 -59 -154 -124 -99 -237 38 -80 50 -139 47 -249 -2 -77 -5 -90 -30 -122 -24 -33 -71 -62 -131 -82 -42 -15 -138 -18 -203 -6 -71 12 -142 39 -142 54 0 5 -18 6 -40 2 -41 -6 -43 -5 -41 39 0 11 -2 14 -5 8 -7 -15 -40 -17 -49 -3 -8 12 33 67 56 75 23 8 29 38 11 54 -12 12 -14 33 -9 108 4 73 2 96 -9 107 -20 21 -17 42 9 63 12 10 32 36 44 58 39 72 83 90 178 73 14 -2 20 3 20 16 0 21 -9 25 -130 52 -44 10 -102 29 -129 42 -28 14 -51 21 -53 16 -11 -31 -31 -60 -55 -77 -24 -18 -33 -19 -105 -10 -73 10 -80 9 -108 -12 -41 -31 -85 -39 -110 -21 -17 12 -18 17 -7 37 7 13 31 35 52 48 43 27 51 45 41 93 -11 54 -2 84 35 122 19 19 34 39 34 43 0 5 -11 22 -25 38 -13 17 -65 81 -116 143 -51 62 -97 111 -102 109 -6 -2 -20 -28 -31 -59 -12 -31 -25 -60 -29 -64 -10 -10 -9 -41 2 -62 5 -9 12 -25 15 -34 4 -15 18 -18 80 -18 69 0 77 -2 92 -25 15 -24 14 -32 -36 -187 -88 -277 -92 -289 -114 -303 -13 -8 -73 -16 -161 -20 -134 -7 -141 -6 -159 13 -15 18 -17 30 -11 69 4 26 13 59 20 73 26 51 28 95 6 143 -24 52 -29 172 -10 242 6 22 13 54 15 70 3 17 11 71 19 120 8 50 19 122 25 160 28 182 125 280 275 279 43 0 85 -7 110 -18 40 -17 187 -113 222 -144 10 -10 38 -33 63 -52 25 -19 47 -38 48 -42 2 -5 9 -8 16 -8 8 0 18 46 30 138 9 75 24 183 32 240 8 56 14 107 14 113 0 6 6 9 13 6 8 -3 11 -22 10 -58z"/>
<path d="M1260 1702 c0 -9 29 -53 45 -67 6 -5 38 -43 70 -83 124 -156 229 -225 390 -261 50 -10 121 -29 160 -40 95 -28 245 -29 245 -1 0 5 -33 8 -72 8 -77 -1 -289 39 -393 74 -74 25 -165 68 -165 80 0 4 -7 8 -15 8 -8 0 -15 7 -15 15 0 8 -7 15 -15 15 -8 0 -15 7 -15 15 0 8 -3 15 -8 15 -12 0 -72 57 -72 69 0 5 -10 18 -23 28 -13 10 -42 44 -66 76 -43 56 -51 64 -51 49z"/>
</g>
<g id="layer114" fill="#96a8f2" stroke="none">
<path d="M0 1300 l0 -1300 1360 0 1360 0 0 1300 0 1300 -1360 0 -1360 0 0 -1300z m1643 1109 c-1 -30 -6 -83 -12 -119 -15 -96 -41 -312 -41 -336 0 -12 6 -27 14 -33 23 -19 22 -25 61 354 10 88 19 166 21 173 3 9 87 12 379 12 206 0 378 1 383 3 4 1 10 -65 14 -148 9 -191 23 -266 61 -335 65 -116 80 -147 109 -219 78 -195 6 -328 -242 -443 -30 -15 -90 -42 -132 -62 -127 -59 -154 -124 -99 -237 38 -80 50 -139 47 -249 -2 -78 -5 -90 -31 -124 -15 -20 -43 -43 -62 -51 -18 -8 -33 -18 -33 -23 0 -6 25 -32 56 -58 31 -27 99 -86 151 -132 88 -77 96 -82 128 -76 29 5 39 2 65 -24 34 -34 37 -57 14 -90 -23 -33 -61 -46 -95 -32 -34 14 -50 51 -44 98 5 36 4 38 -71 97 -42 33 -95 78 -119 100 -116 109 -110 106 -187 99 -103 -9 -277 28 -278 60 0 5 -18 6 -40 2 -41 -6 -43 -5 -41 39 0 11 -2 14 -5 8 -7 -15 -40 -17 -49 -3 -8 12 33 67 56 75 22 8 29 38 12 53 -8 8 -13 37 -13 82 l0 69 -45 37 c-25 20 -43 39 -41 42 3 3 24 -12 46 -32 22 -20 42 -36 45 -36 11 0 4 40 -10 54 -21 21 -19 42 8 63 12 10 32 36 44 58 39 72 83 90 178 73 14 -2 20 3 20 16 0 21 -9 25 -130 52 -44 10 -102 29 -129 42 -28 14 -51 21 -53 16 -11 -31 -31 -60 -55 -77 -24 -18 -33 -19 -105 -10 -73 10 -80 9 -108 -12 -41 -31 -85 -39 -110 -21 -17 12 -18 17 -7 37 7 13 31 35 52 48 43 27 51 45 41 93 -11 54 -2 84 35 122 19 19 34 39 34 43 0 5 -11 22 -25 38 -13 17 -65 81 -116 143 -51 62 -97 111 -102 109 -6 -2 -20 -28 -31 -59 -12 -31 -25 -60 -29 -64 -10 -10 -9 -41 2 -62 5 -9 12 -25 15 -34 4 -15 18 -18 80 -18 69 0 77 -2 92 -25 15 -24 14 -32 -36 -187 -88 -277 -92 -289 -114 -303 -13 -8 -73 -16 -161 -20 -134 -7 -141 -6 -159 13 -15 18 -17 30 -11 69 4 26 13 59 20 73 26 51 28 95 6 143 -24 52 -29 172 -10 242 6 22 13 54 15 70 3 17 11 71 19 120 8 50 19 122 25 160 28 182 125 280 275 279 43 0 85 -7 110 -18 40 -17 187 -113 222 -144 10 -10 38 -33 63 -52 25 -19 47 -38 48 -42 2 -5 9 -8 16 -8 8 0 18 46 30 138 9 75 24 183 32 240 8 56 14 107 14 113 0 6 6 9 13 6 8 -3 11 -22 10 -58z m-1463 -786 c25 -24 34 -66 20 -93 -9 -18 -8 -25 5 -40 10 -11 15 -26 11 -36 -5 -14 -4 -15 9 -4 8 7 15 10 15 6 0 -21 11 -39 56 -89 16 -17 52 -61 79 -97 27 -36 60 -76 72 -90 13 -14 44 -51 69 -82 26 -32 51 -55 57 -51 5 3 7 1 4 -4 -8 -13 51 -89 65 -85 5 1 7 -2 4 -7 -4 -5 2 -14 11 -20 10 -6 14 -11 9 -11 -5 0 3 -11 18 -25 25 -23 31 -24 59 -14 36 12 84 0 93 -26 8 -21 22 -19 59 10 18 13 35 21 38 18 4 -3 23 7 42 22 20 15 39 25 42 22 2 -3 -24 -24 -59 -46 -34 -22 -58 -41 -53 -41 6 0 -5 -8 -22 -16 -18 -9 -33 -24 -33 -34 0 -34 -40 -56 -98 -52 -27 2 -63 58 -56 87 5 20 -25 71 -53 88 -7 4 -13 15 -13 23 0 8 -4 13 -9 10 -9 -6 -34 18 -26 25 4 4 -79 113 -115 151 -8 9 -26 31 -40 49 -32 41 -168 208 -192 233 -10 11 -18 24 -18 28 0 5 -4 7 -9 4 -5 -3 -18 9 -29 27 -17 30 -23 33 -56 29 -51 -6 -76 18 -76 74 0 33 5 46 22 58 30 21 74 20 98 -1z m1254 -615 c-4 -7 -16 -19 -26 -26 -10 -7 -16 -18 -12 -23 3 -5 1 -8 -4 -7 -5 2 -22 -11 -39 -29 -24 -26 -30 -40 -30 -77 0 -34 -5 -50 -19 -61 -56 -43 -115 -18 -124 53 -3 22 -15 52 -27 66 -31 36 -29 41 7 15 26 -20 33 -21 54 -9 15 7 39 10 60 7 32 -5 41 0 96 49 61 54 78 65 64 42z m-720 -19 c-7 -12 -87 -6 -91 7 -2 5 19 7 47 6 28 -2 47 -8 44 -13z m63 5 c-3 -3 -12 -4 -19 -1 -8 3 -5 6 6 6 11 1 17 -2 13 -5z m590 -11 c-4 -3 -10 -3 -14 0 -3 4 0 7 7 7 7 0 10 -3 7 -7z"/>
<path d="M1275 1675 c10 -16 24 -34 30 -40 6 -5 38 -43 70 -83 124 -156 229 -225 390 -261 50 -10 121 -29 160 -40 94 -28 245 -29 245 -1 0 4 -37 8 -82 9 -79 0 -169 14 -303 46 -183 43 -269 102 -439 301 -78 91 -94 106 -71 69z"/>
<path d="M963 1563 c-31 -4 -33 -7 -33 -41 0 -21 7 -48 16 -60 36 -52 -14 -102 -65 -64 l-27 20 -27 -82 c-14 -44 -29 -92 -33 -106 -3 -14 -11 -30 -16 -37 -5 -6 -10 -31 -11 -55 l-2 -43 130 3 c77 2 137 8 148 15 10 7 27 37 37 67 72 219 111 352 108 367 -3 16 -15 18 -98 19 -52 1 -110 -1 -127 -3z"/>
</g>
<g id="layer115" fill="#acbbfe" stroke="none">
<path d="M0 1300 l0 -1300 1360 0 1360 0 0 1300 0 1300 -1360 0 -1360 0 0 -1300z m1643 1109 c-1 -30 -6 -83 -12 -119 -15 -96 -41 -312 -41 -336 0 -12 6 -27 14 -33 11 -9 15 -5 19 21 9 49 24 175 43 351 9 86 20 159 24 162 4 2 178 5 386 5 l379 1 7 -148 c9 -189 23 -265 61 -333 65 -116 80 -147 109 -219 78 -195 6 -328 -242 -443 -30 -15 -90 -42 -132 -62 -127 -59 -154 -124 -99 -237 38 -80 50 -139 47 -249 -2 -78 -5 -90 -31 -124 -15 -20 -43 -43 -62 -51 -18 -8 -33 -18 -33 -23 0 -6 25 -32 56 -58 31 -27 99 -86 151 -132 88 -77 96 -82 128 -76 29 5 39 2 65 -24 34 -34 37 -57 14 -90 -23 -33 -61 -46 -95 -32 -34 14 -50 51 -44 98 5 36 4 38 -71 97 -42 33 -95 78 -119 100 -116 109 -110 106 -186 99 -86 -7 -200 11 -258 43 -31 17 -52 22 -72 18 -30 -7 -32 -3 -30 40 0 11 -2 14 -5 8 -7 -15 -40 -17 -49 -3 -8 12 33 67 56 75 22 8 29 38 12 53 -8 8 -13 37 -13 81 0 62 -3 70 -24 84 -39 26 -76 63 -69 70 6 7 43 -17 81 -53 21 -20 22 -20 22 -1 0 11 -7 26 -15 35 -21 21 -19 42 8 63 12 10 32 36 44 58 39 72 83 90 178 73 14 -2 20 3 20 16 0 21 -9 25 -130 52 -44 10 -102 29 -129 42 -28 14 -51 21 -53 16 -11 -31 -31 -60 -55 -77 -24 -18 -33 -19 -105 -10 -73 10 -80 9 -108 -12 -41 -31 -85 -39 -110 -21 -17 12 -18 17 -7 37 7 13 31 35 52 48 43 27 51 45 41 93 -11 54 -2 84 35 122 19 19 34 39 34 43 0 5 -11 22 -25 38 -13 17 -65 81 -116 143 -51 62 -97 111 -102 109 -6 -2 -20 -28 -31 -59 -12 -31 -25 -60 -29 -64 -10 -10 -9 -41 2 -62 5 -9 12 -25 15 -34 4 -15 18 -18 80 -18 69 0 77 -2 92 -25 15 -24 14 -32 -36 -187 -88 -277 -92 -289 -114 -303 -13 -8 -73 -16 -161 -20 -134 -7 -141 -6 -159 13 -15 18 -17 30 -11 69 4 26 13 59 20 73 26 51 28 95 6 143 -24 52 -29 172 -10 242 6 22 13 54 15 70 3 17 11 71 19 120 8 50 19 122 25 160 28 182 125 280 275 279 43 0 85 -7 110 -18 40 -17 187 -113 222 -144 10 -10 38 -33 63 -52 25 -19 47 -38 48 -42 2 -5 9 -8 16 -8 8 0 18 46 30 138 9 75 24 183 32 240 8 56 14 107 14 113 0 6 6 9 13 6 8 -3 11 -22 10 -58z m-1461 -789 c22 -20 29 -70 15 -101 -5 -10 2 -25 22 -45 17 -16 31 -33 31 -37 0 -5 28 -43 63 -84 34 -42 104 -129 156 -192 51 -64 98 -115 103 -113 5 1 7 -2 4 -7 -3 -5 12 -28 33 -50 22 -23 37 -41 33 -41 -3 0 4 -9 15 -20 12 -10 28 -29 36 -41 14 -19 19 -20 49 -9 37 13 84 1 94 -25 8 -20 20 -19 57 7 18 13 34 23 37 23 9 1 55 28 60 35 3 4 16 11 30 15 22 7 23 6 11 -8 -7 -10 -38 -31 -67 -48 -30 -17 -54 -34 -54 -37 0 -4 -14 -13 -30 -20 -17 -8 -30 -21 -30 -31 0 -35 -40 -57 -98 -53 -28 2 -63 58 -56 88 6 21 -35 77 -91 126 -11 10 -17 17 -13 18 5 0 -1 10 -11 23 -43 51 -211 256 -274 336 -38 47 -76 93 -86 101 -9 8 -24 27 -33 41 -13 21 -22 25 -52 21 -51 -6 -76 18 -76 74 0 33 5 46 22 58 31 22 75 20 100 -4z m1245 -626 c-15 -13 -27 -28 -27 -34 0 -5 -3 -9 -7 -8 -5 1 -22 -12 -39 -29 -25 -26 -31 -39 -31 -77 0 -34 -5 -50 -19 -61 -56 -43 -117 -18 -122 51 -2 30 -11 47 -38 72 -41 36 -29 44 16 10 26 -19 33 -20 54 -8 15 8 39 10 61 7 33 -5 40 -1 98 53 34 32 66 56 71 52 5 -3 -3 -16 -17 -28z m-713 -5 c-7 -12 -87 -6 -91 7 -2 5 19 7 47 6 28 -2 47 -8 44 -13z m63 5 c-3 -3 -12 -4 -19 -1 -8 3 -5 6 6 6 11 1 17 -2 13 -5z m590 -11 c-4 -3 -10 -3 -14 0 -3 4 0 7 7 7 7 0 10 -3 7 -7z"/>
<path d="M1315 1630 c4 -8 33 -46 63 -83 120 -148 229 -222 375 -252 83 -18 120 -14 46 4 -79 20 -179 53 -179 60 0 4 -15 13 -34 19 -34 13 -145 115 -235 217 -24 28 -41 43 -36 35z"/>
<path d="M963 1563 c-30 -4 -33 -8 -33 -37 0 -18 7 -41 15 -52 20 -26 19 -80 -1 -88 -28 -11 -51 -6 -69 14 -19 21 -19 20 -47 -57 -15 -43 -28 -85 -28 -93 0 -8 -7 -28 -16 -45 -8 -16 -16 -48 -17 -70 l-2 -40 130 3 c149 4 169 12 180 69 4 21 10 43 15 48 4 6 10 24 14 40 4 17 25 87 48 156 22 70 38 134 35 143 -5 13 -22 16 -99 14 -51 0 -108 -3 -125 -5z"/>
<path d="M1851 1276 c4 -4 37 -15 75 -26 70 -20 218 -28 228 -12 3 5 -50 14 -117 21 -67 6 -138 15 -157 18 -19 3 -32 3 -29 -1z"/>
</g>
<g id="layer116" fill="#b9c6fc" stroke="none">
<path d="M0 1300 l0 -1300 1360 0 1360 0 0 1300 0 1300 -1360 0 -1360 0 0 -1300z m1643 1109 c-1 -30 -6 -83 -12 -119 -15 -96 -41 -312 -41 -336 0 -12 6 -27 13 -33 14 -11 30 84 57 349 15 138 20 173 29 182 3 4 177 8 386 8 l380 1 7 -148 c9 -189 23 -265 61 -333 65 -116 80 -147 109 -219 78 -195 6 -328 -242 -443 -30 -15 -90 -42 -132 -62 -127 -59 -154 -124 -99 -237 38 -80 50 -139 47 -249 -2 -78 -5 -90 -31 -124 -15 -20 -43 -43 -62 -51 -18 -8 -33 -18 -33 -23 0 -6 25 -32 56 -58 31 -27 99 -86 151 -132 88 -77 96 -82 128 -76 29 5 39 2 65 -24 34 -34 37 -57 14 -90 -23 -33 -61 -46 -95 -32 -34 14 -50 51 -44 98 5 36 4 38 -71 97 -42 33 -93 76 -113 95 -20 19 -57 52 -82 73 -46 37 -48 37 -110 31 -81 -8 -201 12 -258 43 -31 17 -52 22 -72 18 -30 -7 -32 -3 -30 40 0 11 -2 14 -5 8 -7 -15 -40 -17 -49 -3 -8 12 33 67 56 75 22 8 29 38 12 53 -8 8 -13 36 -13 78 0 58 -3 67 -27 89 -16 13 -33 25 -40 25 -6 0 -19 7 -27 16 -13 13 -16 13 -16 1 0 -10 -8 -13 -25 -9 -14 2 -22 9 -18 15 4 6 -7 1 -24 -11 -17 -12 -33 -19 -37 -15 -3 3 -6 0 -6 -8 -1 -8 -18 -27 -39 -44 -35 -27 -38 -34 -38 -78 1 -35 -4 -51 -19 -62 -57 -44 -117 -18 -122 53 -2 33 -9 46 -32 62 -18 13 -35 18 -42 13 -7 -4 -35 -8 -61 -8 -26 0 -51 -5 -55 -11 -4 -6 -16 -14 -28 -18 -11 -3 -29 -14 -40 -24 -10 -9 -31 -23 -46 -31 -16 -8 -28 -22 -28 -31 0 -35 -40 -56 -98 -52 -28 2 -63 58 -56 88 5 17 -8 38 -53 88 -32 35 -80 94 -108 130 -27 36 -58 76 -70 88 -11 13 -47 57 -80 98 -33 41 -73 89 -88 105 -15 17 -35 42 -45 58 -9 15 -20 27 -24 27 -4 0 -19 18 -33 40 -17 26 -30 38 -38 33 -18 -11 -59 -3 -79 14 -27 24 -24 97 4 117 52 37 121 5 122 -56 0 -18 -3 -40 -7 -49 -5 -10 2 -25 22 -45 17 -16 31 -32 31 -37 0 -4 15 -24 32 -43 18 -20 38 -43 43 -53 6 -9 20 -28 32 -41 12 -14 64 -78 116 -142 52 -64 97 -114 101 -111 3 4 6 0 6 -8 0 -8 18 -34 40 -58 21 -24 49 -59 62 -77 18 -26 28 -33 43 -28 58 18 74 16 100 -10 14 -14 29 -26 33 -26 4 0 25 14 46 30 22 17 44 30 48 30 5 0 24 11 43 25 23 18 31 32 28 45 -4 14 2 23 21 32 34 15 78 1 82 -26 1 -11 16 -33 33 -50 28 -27 32 -29 55 -17 15 8 39 11 59 8 28 -4 41 0 68 24 29 24 32 30 19 39 -15 10 -12 11 23 14 17 1 57 50 57 70 0 23 44 38 75 26 16 -6 25 -17 25 -32 0 -13 18 -39 45 -65 36 -33 45 -38 45 -23 0 10 -7 25 -15 34 -21 21 -19 42 8 63 12 10 32 36 44 58 39 72 83 90 178 73 14 -2 20 3 20 16 0 21 -9 25 -130 52 -44 10 -102 29 -129 42 -28 14 -51 21 -53 16 -11 -31 -31 -60 -55 -77 -24 -18 -33 -19 -105 -10 -73 10 -80 9 -108 -12 -41 -31 -85 -39 -110 -21 -17 12 -18 17 -7 37 7 13 31 35 52 48 43 27 51 45 41 93 -11 54 -2 84 35 122 19 19 34 39 34 43 0 5 -11 22 -25 38 -13 17 -65 81 -116 143 -51 62 -97 111 -102 109 -6 -2 -20 -28 -31 -59 -12 -31 -25 -60 -29 -64 -10 -10 -9 -41 2 -62 5 -9 12 -25 15 -34 4 -15 18 -18 80 -18 69 0 77 -2 92 -25 15 -24 14 -32 -36 -187 -88 -277 -92 -289 -114 -303 -13 -8 -73 -16 -161 -20 -134 -7 -141 -6 -159 13 -15 18 -17 30 -11 69 4 26 13 59 20 73 26 51 28 95 6 143 -24 52 -29 172 -10 242 6 22 13 54 15 70 3 17 11 71 19 120 8 50 19 122 25 160 28 182 125 280 275 279 43 0 85 -7 110 -18 40 -17 187 -113 222 -144 10 -10 38 -33 63 -52 25 -19 47 -38 48 -42 2 -5 9 -8 16 -8 8 0 18 46 30 138 9 75 24 183 32 240 8 56 14 107 14 113 0 6 6 9 13 6 8 -3 11 -22 10 -58z m-929 -1420 c-7 -12 -87 -6 -91 7 -2 5 19 7 47 6 28 -2 47 -8 44 -13z m63 5 c-3 -3 -12 -4 -19 -1 -8 3 -5 6 6 6 11 1 17 -2 13 -5z"/>
<path d="M1316 1630 c4 -8 32 -46 62 -83 120 -148 229 -222 375 -252 88 -19 112 -16 39 4 -101 28 -172 53 -172 61 0 5 -14 11 -31 15 -29 7 -182 149 -253 235 -15 19 -25 28 -20 20z"/>
<path d="M963 1563 c-29 -4 -33 -8 -33 -35 0 -26 2 -29 15 -18 8 7 21 10 28 7 8 -3 20 -1 27 3 8 5 19 6 24 3 15 -10 56 -10 56 -1 0 9 51 11 74 2 17 -7 22 -44 6 -44 -5 0 -10 -8 -10 -17 -1 -10 -9 -42 -19 -70 -10 -29 -15 -53 -11 -53 4 0 15 26 25 58 9 31 23 72 32 90 8 18 13 43 11 55 -3 21 -8 22 -98 23 -52 1 -110 -1 -127 -3z"/>
<path d="M962 1430 c0 -14 2 -19 5 -12 2 6 2 18 0 25 -3 6 -5 1 -5 -13z"/>
<path d="M828 1337 c-15 -45 -30 -93 -34 -107 -3 -14 -11 -30 -16 -37 -5 -6 -10 -31 -11 -55 -2 -39 0 -43 21 -42 12 0 71 1 131 2 91 2 113 5 132 21 13 11 20 23 16 28 -5 4 -13 0 -18 -10 -9 -15 -26 -17 -130 -17 l-120 0 16 30 c8 16 15 41 15 56 0 14 9 43 20 63 10 20 24 54 29 76 9 33 8 42 -7 57 -17 17 -19 14 -44 -65z"/>
<path d="M1106 1312 c-7 -12 -17 -72 -12 -72 7 0 27 73 22 78 -2 2 -7 -1 -10 -6z"/>
<path d="M1852 1275 c3 -3 36 -14 74 -25 74 -21 218 -27 229 -10 4 6 -9 10 -32 10 -54 1 -140 10 -196 21 -54 10 -83 12 -75 4z"/>
<path d="M1083 1223 c4 -3 10 -3 14 0 3 4 0 7 -7 7 -7 0 -10 -3 -7 -7z"/>
<path d="M1071 1184 c0 -11 3 -14 6 -6 3 7 2 16 -1 19 -3 4 -6 -2 -5 -13z"/>
</g>
<g id="layer117" fill="#d6dcfd" stroke="none">
<path d="M0 1300 l0 -1300 1360 0 1360 0 0 1300 0 1300 -1360 0 -1360 0 0 -1300z m1643 1109 c-1 -30 -6 -83 -12 -119 -23 -146 -44 -339 -38 -354 8 -21 27 -20 27 2 1 9 5 51 10 92 6 41 17 136 25 210 18 161 24 203 34 212 3 4 177 8 386 8 l380 1 7 -148 c9 -189 23 -265 61 -333 65 -116 80 -147 109 -219 78 -194 6 -328 -237 -441 -38 -18 -102 -48 -142 -66 -121 -57 -148 -123 -94 -235 31 -65 52 -148 46 -181 -2 -10 0 -18 6 -18 20 0 4 -106 -23 -150 -4 -8 -11 -23 -15 -33 -3 -11 -25 -27 -49 -38 -24 -10 -44 -22 -44 -28 0 -5 25 -31 56 -57 31 -27 99 -86 151 -132 88 -77 96 -82 128 -76 29 5 39 2 65 -24 34 -34 37 -57 14 -90 -23 -33 -61 -46 -95 -32 -34 14 -50 51 -44 98 5 36 4 38 -71 97 -42 33 -95 77 -117 99 -113 104 -118 107 -188 100 -80 -8 -201 12 -256 42 -27 15 -51 21 -72 18 -32 -5 -34 -2 -32 41 0 11 -2 14 -5 8 -7 -15 -40 -17 -49 -3 -8 12 33 67 56 75 22 7 31 42 13 49 -9 3 -14 28 -16 78 l-3 73 -50 33 c-27 19 -51 29 -53 24 -2 -6 -14 -7 -32 -2 -31 9 -50 -1 -110 -57 -19 -18 -38 -33 -41 -33 -4 0 -6 -23 -6 -50 1 -38 -4 -53 -19 -65 -57 -44 -117 -18 -122 53 -2 33 -9 46 -32 62 -18 13 -35 18 -42 13 -7 -4 -33 -8 -58 -8 -25 0 -52 -6 -60 -13 -19 -16 -78 -53 -112 -71 -15 -8 -25 -18 -23 -22 8 -12 -38 -59 -60 -61 -49 -4 -66 3 -85 34 -12 19 -17 41 -14 55 5 17 -6 35 -48 80 -30 32 -89 103 -133 158 -43 55 -84 105 -91 110 -17 15 -205 251 -232 291 -14 22 -27 32 -35 27 -18 -11 -59 -3 -79 14 -27 24 -24 97 4 117 66 46 155 -25 118 -94 -10 -19 -8 -26 19 -54 17 -18 31 -37 31 -43 0 -6 4 -13 9 -15 8 -3 93 -101 141 -163 92 -119 164 -205 172 -205 4 0 8 -4 8 -10 0 -5 8 -18 17 -28 25 -26 43 -50 78 -100 23 -33 34 -41 50 -36 58 18 74 16 100 -10 32 -32 31 -32 69 -3 17 13 52 36 79 51 36 21 47 34 47 52 0 49 99 58 106 10 1 -11 16 -33 33 -49 29 -30 30 -30 62 -14 23 11 39 13 57 6 26 -10 41 -2 73 36 11 13 13 22 7 26 -6 4 0 10 13 14 33 10 69 45 69 67 0 25 42 40 75 28 17 -6 25 -17 25 -33 0 -15 15 -36 45 -60 45 -38 58 -38 30 -1 -21 27 -18 50 8 71 12 10 32 36 44 58 11 22 38 52 59 66 36 26 40 26 83 13 48 -14 61 -11 61 12 0 16 -28 29 -80 37 -58 8 -142 34 -190 57 -24 13 -46 19 -47 14 -11 -31 -32 -60 -55 -77 -24 -18 -33 -19 -105 -10 -74 10 -79 9 -110 -13 -17 -13 -38 -24 -45 -24 -8 0 -18 -4 -24 -9 -5 -6 -18 -3 -34 9 -22 16 -23 21 -12 42 7 12 31 34 52 47 43 27 51 45 41 93 -10 53 -2 83 35 123 18 21 34 40 34 44 0 4 -11 20 -25 36 -13 17 -65 81 -116 143 -51 62 -97 111 -102 109 -6 -2 -20 -28 -31 -59 -12 -31 -25 -60 -29 -64 -10 -10 -9 -41 2 -62 5 -9 12 -25 15 -34 4 -15 18 -18 80 -18 69 0 77 -2 92 -25 15 -23 15 -30 -10 -107 -15 -46 -40 -128 -57 -183 -17 -55 -35 -109 -40 -120 -4 -11 -11 -30 -14 -43 -12 -41 -42 -50 -190 -57 -135 -7 -141 -6 -159 14 -17 19 -18 27 -9 74 6 28 19 72 28 97 17 47 14 105 -7 112 -17 6 -23 182 -8 238 6 25 14 59 16 75 38 254 62 378 78 411 24 47 77 100 126 125 56 29 164 32 224 6 43 -19 189 -114 221 -144 33 -31 135 -106 139 -102 1 2 11 65 20 139 10 74 24 181 32 238 8 56 14 107 14 113 0 6 6 9 13 6 8 -3 11 -22 10 -58z m-929 -1420 c-7 -12 -87 -6 -91 7 -2 5 19 7 47 6 28 -2 47 -8 44 -13z m63 5 c-3 -3 -12 -4 -19 -1 -8 3 -5 6 6 6 11 1 17 -2 13 -5z"/>
<path d="M1395 1526 c71 -85 146 -148 217 -184 65 -32 158 -56 158 -41 0 5 -8 9 -19 9 -26 0 -143 45 -136 52 4 3 -8 9 -25 13 -19 4 -55 30 -88 62 -31 30 -79 76 -106 102 l-49 46 48 -59z"/>
<path d="M963 1563 c-28 -4 -33 -9 -33 -30 0 -19 4 -24 17 -19 9 4 63 9 120 12 94 5 103 4 103 -12 0 -13 3 -15 11 -7 6 6 9 21 7 34 -3 23 -6 24 -98 25 -52 1 -110 -1 -127 -3z"/>
<path d="M828 1337 c-15 -45 -30 -93 -34 -107 -3 -14 -11 -30 -16 -37 -5 -6 -10 -31 -11 -55 -2 -38 1 -43 21 -46 20 -3 23 0 18 15 -4 11 12 73 34 140 44 133 46 146 27 161 -10 9 -19 -7 -39 -71z"/>
<path d="M1852 1275 c18 -18 152 -45 223 -45 105 1 79 17 -41 25 -49 4 -105 11 -124 16 -39 10 -66 12 -58 4z"/>
</g>
<g id="layer118" fill="#dee3fe" stroke="none">
<path d="M0 1300 l0 -1300 1360 0 1360 0 0 1300 0 1300 -1360 0 -1360 0 0 -1300z m1643 1109 c-1 -30 -6 -83 -12 -119 -15 -96 -41 -312 -41 -336 0 -30 30 -41 30 -11 1 12 5 56 10 97 6 41 17 134 25 205 17 154 24 197 34 207 3 4 177 8 386 8 l380 1 7 -148 c9 -189 23 -265 61 -333 65 -116 80 -147 109 -219 78 -194 6 -328 -237 -441 -38 -18 -102 -48 -142 -66 -121 -57 -148 -123 -94 -235 31 -65 52 -148 46 -181 -2 -10 0 -18 6 -18 12 0 12 -87 -1 -95 -5 -3 -10 -17 -10 -29 0 -13 -7 -29 -15 -36 -8 -7 -15 -19 -15 -27 0 -7 -20 -22 -45 -33 -25 -11 -45 -23 -45 -29 0 -5 25 -31 56 -57 31 -27 99 -86 151 -132 88 -77 96 -82 128 -76 29 5 39 2 65 -24 34 -34 37 -57 14 -90 -23 -33 -61 -46 -95 -32 -34 14 -50 51 -44 98 5 35 2 39 -40 72 -63 48 -111 88 -159 134 -23 21 -59 51 -80 67 -36 27 -44 29 -99 23 -64 -6 -212 12 -237 30 -36 26 -57 32 -94 28 l-38 -4 6 33 c3 19 3 28 0 22 -7 -15 -40 -17 -49 -3 -8 12 33 67 56 75 9 3 19 14 22 25 4 16 -2 22 -26 29 -18 5 -24 10 -14 10 14 1 17 11 17 64 l0 62 -52 38 c-29 21 -54 34 -56 29 -2 -6 -14 -7 -32 -2 -32 9 -53 -2 -109 -57 -18 -18 -37 -33 -41 -33 -4 0 -7 -23 -7 -51 1 -38 -3 -53 -16 -61 -10 -5 -15 -13 -13 -17 3 -4 -12 -7 -33 -7 -53 1 -81 28 -81 77 0 31 -5 40 -32 57 -18 11 -37 18 -43 14 -5 -4 -32 -7 -58 -7 -26 0 -51 -5 -55 -10 -8 -11 -71 -52 -114 -74 -15 -8 -25 -18 -23 -22 8 -12 -38 -59 -60 -61 -49 -4 -66 3 -85 34 -11 19 -17 41 -14 54 5 18 -8 37 -53 87 l-58 65 -115 2 c-63 1 -144 0 -180 -1 -36 -1 -82 -2 -103 -2 l-37 2 2 -80 c3 -77 4 -79 28 -80 16 0 19 -3 10 -6 -38 -15 -39 -25 -39 -294 0 -194 3 -265 12 -271 8 -5 7 -8 -5 -8 -16 0 -18 28 -20 378 -3 355 4 890 11 792 1 -25 3 -128 4 -230 l2 -185 83 -3 c46 -2 81 1 79 5 -5 8 23 8 155 -2 44 -3 79 -2 82 4 6 9 -105 150 -130 164 -8 4 -14 15 -14 23 0 8 -11 20 -25 26 -14 6 -25 18 -25 27 0 9 -14 30 -30 48 -17 18 -30 35 -30 38 0 3 -10 17 -22 30 -35 36 -46 51 -79 100 -19 28 -35 42 -42 38 -18 -11 -60 -3 -79 14 -22 20 -24 95 -4 112 8 7 28 16 44 21 25 7 36 4 56 -13 30 -27 42 -68 26 -97 -10 -18 -6 -27 25 -63 80 -91 98 -108 106 -96 4 7 14 9 23 6 8 -3 18 -1 22 5 4 6 3 8 -3 5 -7 -5 -11 19 -12 70 -1 42 -2 78 -4 79 -1 1 -21 4 -45 7 -62 6 -64 17 -4 17 l52 0 0 36 c0 31 2 34 15 20 8 -8 15 -24 15 -35 0 -19 6 -21 73 -23 65 -1 67 -2 22 -7 l-50 -5 50 -7 c49 -6 48 -7 -11 -4 -34 1 -67 -1 -73 -5 -8 -4 -11 -33 -9 -81 3 -66 5 -74 23 -75 120 -6 122 -7 40 -14 -44 -4 -85 -3 -91 2 -7 5 -16 3 -23 -6 -9 -11 -5 -20 19 -44 16 -17 30 -35 30 -41 0 -5 12 -19 26 -30 15 -12 24 -21 20 -21 -6 0 17 -31 51 -67 12 -13 20 -23 17 -23 -3 0 1 -6 8 -14 7 -7 28 -32 47 -55 19 -22 41 -41 48 -41 8 0 12 -4 9 -8 -6 -10 -2 -11 111 -12 74 -1 90 2 101 17 12 16 14 16 22 2 7 -12 23 -15 66 -13 60 3 84 -2 84 -17 0 -5 -33 -9 -74 -9 l-75 0 -4 -33 -3 -32 -8 33 c-10 37 -5 36 -147 33 l-60 -1 38 -55 c30 -44 42 -54 58 -49 58 18 74 16 100 -10 32 -32 31 -32 69 -3 17 13 53 36 79 52 40 23 48 32 44 51 -3 18 2 25 25 35 37 15 80 2 84 -25 1 -11 16 -33 33 -49 29 -29 30 -30 62 -15 21 11 41 13 58 8 18 -5 34 -3 46 6 10 8 15 14 9 14 -5 1 2 10 15 20 l23 20 -25 0 c-14 0 -31 -9 -40 -23 l-16 -22 0 23 c-1 20 -6 22 -68 23 -38 1 -57 4 -44 6 19 4 21 7 10 14 -9 7 4 9 41 7 l54 -3 8 54 c11 76 21 78 16 5 l-3 -61 44 -2 c48 -2 91 26 91 61 0 50 96 42 102 -9 2 -17 12 -32 28 -40 13 -6 32 -22 42 -35 10 -13 18 -18 18 -12 0 5 -7 19 -15 30 -21 27 -18 50 8 71 12 10 33 39 47 66 14 26 33 50 42 53 10 3 24 12 32 19 12 13 21 13 62 0 50 -15 64 -13 64 11 0 16 -28 29 -80 37 -57 8 -142 34 -189 57 -35 18 -45 19 -52 8 -9 -13 -11 -33 -6 -43 1 -3 -16 -14 -37 -26 -36 -19 -47 -20 -115 -11 -72 9 -78 8 -108 -14 -17 -13 -38 -24 -45 -24 -8 0 -18 -4 -24 -9 -5 -6 -18 -3 -34 9 -22 16 -23 21 -12 42 7 12 31 34 53 48 37 23 44 35 40 70 -6 57 -1 104 13 119 9 10 16 23 16 29 0 6 9 14 20 17 26 8 25 24 -5 60 -13 17 -65 81 -116 143 -51 62 -97 111 -102 109 -6 -2 -20 -28 -31 -59 -12 -31 -25 -60 -29 -64 -10 -10 -9 -41 2 -62 5 -9 12 -25 15 -34 4 -15 18 -18 80 -18 69 0 77 -2 92 -25 15 -23 15 -30 -10 -107 -15 -46 -40 -128 -57 -183 -17 -55 -35 -108 -40 -117 -5 -10 -9 -25 -9 -33 0 -9 -11 -26 -23 -39 -22 -22 -35 -24 -166 -31 -130 -7 -144 -6 -162 11 -18 16 -20 26 -14 68 3 27 12 61 20 75 25 50 29 99 9 129 -23 34 -31 186 -14 252 6 25 14 59 16 75 38 254 62 378 78 411 24 47 77 100 126 125 56 29 164 32 224 6 43 -19 189 -114 221 -144 33 -31 135 -106 139 -102 1 2 11 65 20 139 10 74 24 181 32 238 8 56 14 107 14 113 0 6 6 9 13 6 8 -3 11 -22 10 -58z m-96 -306 c-4 -3 -10 -3 -14 0 -3 4 0 7 7 7 7 0 10 -3 7 -7z m-1396 -217 c1 -108 -2 -200 -5 -203 -3 -4 -6 87 -6 202 0 115 2 206 5 203 3 -2 5 -93 6 -202z m1386 147 c-3 -10 -5 -2 -5 17 0 19 2 27 5 18 2 -10 2 -26 0 -35z m-1155 -218 c-2 -19 -6 -35 -8 -35 -2 0 -4 16 -4 35 0 19 4 35 8 35 4 0 6 -16 4 -35z m8 -69 c0 -13 -7 -26 -15 -30 -12 -4 -15 1 -13 24 3 36 28 41 28 6z m-3 -53 c-4 -3 -10 -3 -14 0 -3 4 0 7 7 7 7 0 10 -3 7 -7z m190 -140 c-4 -3 -10 -3 -14 0 -3 4 0 7 7 7 7 0 10 -3 7 -7z m91 0 c-10 -2 -26 -2 -35 0 -10 3 -2 5 17 5 19 0 27 -2 18 -5z m-101 -20 c-4 -3 -10 -3 -14 0 -3 4 0 7 7 7 7 0 10 -3 7 -7z m-180 -199 c-3 -3 -12 -4 -19 -1 -8 3 -5 6 6 6 11 1 17 -2 13 -5z m2060 -106 c-2 -18 -4 -6 -4 27 0 33 2 48 4 33 2 -15 2 -42 0 -60z m-888 -41 c11 3 21 -2 24 -12 4 -9 2 -15 -6 -14 -28 3 -37 -2 -37 -22 0 -40 -18 -8 -18 33 -2 59 12 97 16 47 2 -30 7 -36 21 -32z m-1169 -2 c0 -7 -7 -15 -15 -19 -8 -3 -15 -1 -15 4 0 5 -15 11 -32 13 -32 4 -32 4 5 5 20 1 37 7 37 13 0 5 5 7 10 4 6 -3 10 -12 10 -20z m107 8 c-4 -3 -10 -3 -14 0 -3 4 0 7 7 7 7 0 10 -3 7 -7z m1952 -35 c-1 -24 -3 -27 -6 -10 -2 12 -10 22 -16 22 -7 0 -6 4 3 10 21 13 20 14 19 -22z m-1906 15 c-7 -2 -21 -2 -30 0 -10 3 -4 5 12 5 17 0 24 -2 18 -5z m110 0 c-7 -2 -19 -2 -25 0 -7 3 -2 5 12 5 14 0 19 -2 13 -5z m724 0 c-4 -3 -10 -3 -14 0 -3 4 0 7 7 7 7 0 10 -3 7 -7z m93 -3 c0 -5 -4 -10 -10 -10 -5 0 -10 5 -10 10 0 6 5 10 10 10 6 0 10 -4 10 -10z m-1163 -6 c-3 -3 -12 -4 -19 -1 -8 3 -5 6 6 6 11 1 17 -2 13 -5z m230 -10 c-3 -3 -12 -4 -19 -1 -8 3 -5 6 6 6 11 1 17 -2 13 -5z m-147 -14 c0 -5 -7 -10 -15 -10 -8 0 -15 5 -15 10 0 6 7 10 15 10 8 0 15 -4 15 -10z m2057 -157 c-2 -27 -3 -5 -3 47 0 52 1 74 3 48 2 -27 2 -69 0 -95z m-2063 75 c5 -30 4 -38 -8 -38 -10 0 -14 10 -14 33 1 30 7 52 13 45 1 -2 5 -20 9 -40z m-87 -55 c-4 -3 -10 -3 -14 0 -3 4 0 7 7 7 7 0 10 -3 7 -7z m1960 -20 c-4 -3 -10 -3 -14 0 -3 4 0 7 7 7 7 0 10 -3 7 -7z m170 0 c-4 -3 -10 -3 -14 0 -3 4 0 7 7 7 7 0 10 -3 7 -7z m-885 -163 c-2 -82 -7 -150 -11 -150 -12 0 -19 54 -9 79 5 13 3 30 -5 42 -10 16 -9 21 1 28 7 4 12 12 11 17 -5 26 2 134 9 134 4 0 6 -67 4 -150z m-1375 118 c-3 -8 -6 -5 -6 6 -1 11 2 17 5 13 3 -3 4 -12 1 -19z m1350 -45 c-3 -10 -5 -2 -5 17 0 19 2 27 5 18 2 -10 2 -26 0 -35z m930 -40 c-2 -16 -4 -3 -4 27 0 30 2 43 4 28 2 -16 2 -40 0 -55z m-2072 57 c3 -5 4 -10 1 -10 -3 0 -8 5 -11 10 -3 6 -4 10 -1 10 3 0 8 -4 11 -10z m242 -7 c-4 -3 -10 -3 -14 0 -3 4 0 7 7 7 7 0 10 -3 7 -7z m-238 -54 c-11 -7 -11 -9 -1 -9 7 0 10 -4 7 -10 -3 -5 -1 -10 5 -10 7 0 8 -6 2 -17 -5 -10 -8 -28 -6 -40 2 -13 0 -23 -5 -23 -5 0 -12 -8 -14 -17 -2 -10 -4 -3 -3 14 0 18 5 33 10 33 5 0 3 6 -3 14 -11 13 -13 54 -4 90 5 18 6 18 15 1 8 -12 7 -20 -3 -26z m699 -6 c-2 -18 2 -27 9 -26 7 2 10 -4 7 -12 -4 -8 -10 -15 -16 -15 -5 0 -6 -4 -3 -10 3 -5 1 -10 -4 -10 -6 0 -11 4 -11 9 0 5 -8 18 -17 27 -17 17 -17 18 0 11 13 -5 17 -1 17 17 0 21 7 36 17 36 3 0 3 -12 1 -27z m-468 -3 c0 -5 -2 -10 -4 -10 -3 0 -8 5 -11 10 -3 6 -1 10 4 10 6 0 11 -4 11 -10z m-273 -27 c-4 -3 -10 -3 -14 0 -3 4 0 7 7 7 7 0 10 -3 7 -7z m220 0 c-4 -3 -10 -3 -14 0 -3 4 0 7 7 7 7 0 10 -3 7 -7z m100 0 c-4 -3 -10 -3 -14 0 -3 4 0 7 7 7 7 0 10 -3 7 -7z m917 0 c-5 -5 -12 -12 -16 -18 -4 -6 -8 -2 -8 8 0 9 7 17 17 17 9 0 12 -3 7 -7z m873 -15 c-3 -8 -6 -5 -6 6 -1 11 2 17 5 13 3 -3 4 -12 1 -19z m-1860 -5 c-4 -3 -7 0 -7 7 0 7 3 10 7 7 3 -4 3 -10 0 -14z m27 -8 c-4 -8 -10 -15 -15 -15 -4 0 -6 7 -3 15 4 8 10 15 15 15 4 0 6 -7 3 -15z m809 8 c-7 -2 -19 -2 -25 0 -7 3 -2 5 12 5 14 0 19 -2 13 -5z m1024 -30 c-4 -3 -7 0 -7 7 0 7 3 10 7 7 3 -4 3 -10 0 -14z m-1372 -65 c-5 -29 -10 -47 -13 -40 -5 17 8 106 15 99 3 -3 2 -30 -2 -59z m1372 -45 c-2 -16 -4 -3 -4 27 0 30 2 43 4 28 2 -16 2 -40 0 -55z m-1150 35 c-3 -7 -5 -2 -5 12 0 14 2 19 5 13 2 -7 2 -19 0 -25z m-680 -15 c-4 -3 -10 -3 -14 0 -3 4 0 7 7 7 7 0 10 -3 7 -7z m921 -170 l-3 -58 -10 67 c-6 40 -7 64 -1 60 5 -3 6 2 3 11 -4 10 -10 24 -13 32 -3 8 -1 15 5 15 6 0 10 3 10 8 -1 4 0 12 2 17 5 17 10 -92 7 -152z m-907 115 c10 -18 9 -20 -6 -15 -9 4 -21 7 -26 7 -5 0 -9 7 -9 15 0 22 28 18 41 -7z m1603 0 c-3 -4 -12 -8 -20 -8 -8 0 -13 4 -10 8 3 5 12 9 20 9 8 0 13 -4 10 -9z m213 -141 c-2 -23 -3 -1 -3 48 0 50 1 68 3 42 2 -26 2 -67 0 -90z m-2057 13 c0 -56 -3 -70 -15 -70 -12 0 -15 14 -15 63 0 35 3 67 7 70 17 18 23 1 23 -63z m230 18 c0 -29 -4 -48 -8 -41 -7 12 -4 93 4 93 2 0 4 -24 4 -52z m227 0 c-2 -13 -4 -5 -4 17 -1 22 1 32 4 23 2 -10 2 -28 0 -40z m220 -5 c-3 -10 -5 -2 -5 17 0 19 2 27 5 18 2 -10 2 -26 0 -35z m235 -46 c3 -48 2 -90 -3 -92 -4 -3 -9 12 -11 32 -3 41 2 157 7 151 1 -2 5 -42 7 -91z m-452 16 c0 -5 -8 -17 -17 -28 -14 -18 -15 -18 -9 -2 3 10 6 23 6 28 0 5 5 9 10 9 6 0 10 -3 10 -7z m-229 -29 c2 3 2 -20 1 -50 -2 -30 -7 -54 -11 -54 -4 0 -7 8 -7 18 -1 9 -4 37 -8 61 -6 38 -5 43 7 33 7 -7 16 -10 18 -8z m1379 -20 c0 -8 -4 -14 -10 -14 -5 0 -10 9 -10 21 0 11 5 17 10 14 6 -3 10 -13 10 -21z m447 -56 c-2 -13 -4 -3 -4 22 0 25 2 35 4 23 2 -13 2 -33 0 -45z m-1600 22 c3 -38 -2 -38 -16 0 -7 22 -7 30 2 30 7 0 13 -14 14 -30z m-457 0 c0 -5 -4 -10 -10 -10 -5 0 -10 5 -10 10 0 6 5 10 10 10 6 0 10 -4 10 -10z m682 -93 c2 -31 0 -57 -4 -57 -5 0 -7 37 -7 83 2 85 6 75 11 -26z m470 -3 c2 -36 -1 -51 -10 -51 -7 0 -10 7 -7 14 3 8 6 42 6 76 2 64 6 49 11 -39z m-1175 54 c-3 -8 -6 -5 -6 6 -1 11 2 17 5 13 3 -3 4 -12 1 -19z m935 -35 c-6 -65 -10 -70 -11 -15 0 28 3 52 7 52 4 0 6 -17 4 -37z m695 -40 c-4 -3 -10 -3 -14 0 -3 4 0 7 7 7 7 0 10 -3 7 -7z m-227 -23 c0 -5 -2 -10 -4 -10 -3 0 -8 5 -11 10 -3 6 -1 10 4 10 6 0 11 -4 11 -10z m235 0 c3 -5 -3 -10 -15 -10 -12 0 -18 5 -15 10 3 6 10 10 15 10 5 0 12 -4 15 -10z m-1238 -6 c-3 -3 -12 -4 -19 -1 -8 3 -5 6 6 6 11 1 17 -2 13 -5z m60 -1 c-4 -3 -10 -3 -14 0 -3 4 0 7 7 7 7 0 10 -3 7 -7z m50 0 c-4 -3 -10 -3 -14 0 -3 4 0 7 7 7 7 0 10 -3 7 -7z m1340 0 c-4 -3 -10 -3 -14 0 -3 4 0 7 7 7 7 0 10 -3 7 -7z"/>
<path d="M1033 2199 c-47 -9 -93 -39 -127 -84 -20 -26 -40 -70 -38 -85 0 -3 -4 -13 -9 -22 -9 -16 -26 -114 -50 -287 -5 -35 -14 -69 -20 -77 -17 -21 -24 -207 -9 -243 7 -17 16 -31 20 -31 16 0 30 80 23 140 -5 51 -4 62 8 58 8 -3 17 -20 20 -39 9 -47 24 -82 43 -98 25 -21 31 -5 11 32 -13 24 -16 44 -11 68 17 84 18 102 6 125 -8 13 -11 27 -7 30 14 14 37 -7 47 -45 6 -25 18 -42 30 -46 32 -10 38 1 27 50 -11 49 0 96 44 182 24 47 24 54 -1 83 -20 23 -27 50 -12 50 4 0 48 -48 97 -106 l90 -106 6 66 c8 89 45 150 122 195 l57 34 -81 59 c-123 91 -195 115 -286 97z"/>
<path d="M1316 1627 c3 -10 9 -15 12 -12 3 3 0 11 -7 18 -10 9 -11 8 -5 -6z"/>
<path d="M1350 1576 c0 -2 8 -10 18 -17 15 -13 16 -12 3 4 -13 16 -21 21 -21 13z"/>
<path d="M963 1563 c-27 -3 -33 -9 -33 -28 0 -21 2 -22 38 -14 52 12 202 11 202 -1 0 -5 5 -10 11 -10 6 0 9 12 7 28 l-3 27 -95 1 c-52 1 -110 -1 -127 -3z"/>
<path d="M1398 1524 c22 -41 149 -149 213 -181 66 -33 159 -57 159 -42 0 5 -12 9 -27 9 -16 0 -40 6 -54 14 -14 7 -38 16 -53 20 -15 4 -24 11 -21 15 3 5 -9 12 -25 16 -18 4 -56 31 -90 63 -111 107 -115 110 -102 86z"/>
<path d="M1321 1483 c-17 -21 -31 -49 -31 -63 0 -24 1 -24 21 8 19 28 50 45 48 25 0 -5 -19 -44 -42 -88 -30 -57 -53 -87 -79 -104 -21 -13 -36 -26 -33 -29 12 -12 56 12 100 57 32 32 52 46 57 38 3 -6 2 -19 -3 -29 -12 -22 3 -24 21 -3 14 17 34 9 26 -11 -6 -16 10 -19 19 -4 10 16 35 11 35 -7 0 -14 4 -13 24 6 50 47 45 63 -48 156 l-84 85 -31 -37z"/>
<path d="M828 1337 c-15 -45 -30 -93 -34 -107 -3 -14 -11 -30 -16 -37 -5 -6 -10 -31 -11 -55 -2 -37 1 -43 20 -46 17 -3 20 1 16 17 -3 11 14 79 37 151 37 113 41 133 29 146 -12 12 -18 2 -41 -69z"/>
<path d="M1803 1283 c4 -3 10 -3 14 0 3 4 0 7 -7 7 -7 0 -10 -3 -7 -7z"/>
<path d="M1852 1275 c18 -19 152 -45 223 -44 68 1 75 2 45 10 -19 5 -69 12 -110 14 -41 3 -91 10 -110 15 -39 11 -56 13 -48 5z"/>
<path d="M1900 1199 c-6 -10 -10 -29 -10 -43 0 -27 -23 -36 -36 -15 -11 18 -67 37 -95 32 -31 -6 -56 -40 -40 -56 14 -14 15 -57 1 -57 -5 0 -13 8 -18 17 -9 15 -13 13 -36 -13 -18 -20 -24 -35 -19 -49 3 -11 5 -62 4 -112 -1 -51 1 -93 6 -93 5 0 14 -13 20 -30 10 -27 16 -30 52 -30 52 0 61 19 61 125 0 84 6 105 29 105 15 0 61 -56 61 -76 0 -5 5 -16 10 -24 7 -12 13 -11 34 10 34 31 33 60 -4 95 -25 24 -28 32 -17 40 8 5 21 24 31 42 23 45 49 57 112 49 52 -6 54 -5 60 21 3 16 8 36 11 46 4 15 -4 17 -59 17 -35 1 -82 5 -106 9 -36 7 -44 6 -52 -10z m15 -270 c8 -23 1 -34 -14 -24 -13 8 -15 45 -2 45 5 0 13 -9 16 -21z m-195 -13 c0 -14 -5 -28 -11 -32 -17 -10 -32 12 -24 35 9 29 35 27 35 -3z m40 -57 c0 -4 -7 -14 -15 -21 -9 -7 -22 -19 -30 -26 -12 -10 -18 -10 -35 0 -20 13 -27 27 -12 29 31 3 48 10 56 22 10 15 36 12 36 -4z"/>
<path d="M372 515 c0 -16 2 -22 5 -12 2 9 2 23 0 30 -3 6 -5 -1 -5 -18z"/>
</g>
<g id="layer119" fill="#fcfcfe" stroke="none">
<path d="M0 1300 l0 -1300 1360 0 1360 0 0 1300 0 1300 -1360 0 -1360 0 0 -1300z m1645 1088 c-4 -46 -10 -96 -15 -113 -5 -16 -14 -79 -21 -140 -6 -60 -14 -128 -16 -151 -3 -28 0 -44 10 -52 13 -11 16 -1 21 65 16 182 37 366 42 375 3 5 8 24 11 41 2 18 8 35 11 39 4 4 179 8 390 10 l382 3 1 -70 c1 -175 27 -360 56 -401 41 -58 132 -260 142 -314 9 -54 3 -110 -17 -160 -13 -33 -86 -109 -135 -142 l-38 -25 1 -502 c0 -441 -1 -501 -15 -501 -11 0 -15 10 -15 35 l0 35 -84 0 c-47 0 -88 -4 -91 -10 -3 -6 2 -10 11 -10 10 0 15 -3 11 -6 -8 -8 90 -94 108 -94 7 0 15 4 17 10 5 17 71 -23 88 -53 13 -24 13 -30 0 -54 -8 -14 -28 -34 -45 -43 -27 -15 -32 -15 -57 -1 -16 9 -31 24 -34 34 -3 9 -9 15 -14 12 -5 -3 -5 9 1 27 5 18 9 40 9 48 -1 17 -86 86 -101 82 -5 -1 -9 5 -9 13 0 8 -6 15 -13 15 -7 0 -17 8 -23 17 -10 16 -23 17 -110 13 l-99 -5 0 -75 0 -75 100 0 100 0 -1 37 c0 21 3 38 7 38 13 0 24 -24 24 -50 0 -22 5 -25 37 -28 20 -2 39 -10 42 -17 4 -13 -145 -15 -1084 -15 l-1090 0 -2 382 c-2 211 -1 487 0 613 3 198 6 225 16 195 11 -31 17 -35 54 -38 l41 -3 -40 60 c-26 39 -45 58 -52 54 -18 -11 -60 -3 -79 14 -27 24 -24 97 4 117 12 9 30 16 39 16 22 0 49 32 32 37 -10 4 -13 56 -13 219 l0 214 358 0 358 0 34 40 c60 71 164 103 262 80 46 -11 114 -43 128 -60 3 -3 21 -15 40 -27 29 -17 53 -21 142 -22 58 -1 109 2 111 6 3 5 11 56 17 113 18 171 30 230 47 230 13 0 14 -13 8 -82z"/>
<path d="M1005 2193 c-25 -5 -84 -57 -108 -95 -37 -58 -50 -117 -87 -372 -5 -38 -14 -74 -20 -81 -17 -21 -25 -209 -10 -244 7 -17 15 -31 19 -31 17 0 31 91 21 137 -7 29 -7 50 -1 56 14 14 31 -1 31 -29 0 -27 33 -99 51 -109 20 -13 23 5 6 34 -19 32 -23 96 -7 106 14 8 13 78 -1 92 -7 7 -9 19 -5 28 9 25 33 2 46 -45 10 -36 30 -52 57 -43 8 3 9 13 2 36 -12 41 -11 83 1 105 19 35 60 129 60 139 0 5 -9 20 -20 33 -20 23 -27 50 -12 50 4 0 48 -48 97 -106 l90 -106 6 64 c9 103 43 157 130 204 l49 27 -78 57 c-112 82 -155 100 -233 99 -35 -1 -73 -4 -84 -6z"/>
<path d="M1414 2075 c39 -35 94 -75 105 -75 14 0 14 17 0 26 -6 3 -9 19 -5 35 5 27 3 29 -27 30 -17 1 -46 2 -63 3 l-32 1 22 -20z"/>
<path d="M1546 2092 c-15 -24 -7 -138 8 -121 9 11 16 129 7 129 -5 0 -12 -4 -15 -8z"/>
<path d="M160 2015 l0 -75 100 0 100 0 0 75 0 75 -100 0 -100 0 0 -75z"/>
<path d="M390 2015 l0 -75 63 -1 c34 -1 78 -2 97 -2 l35 -2 3 78 3 77 -101 0 -100 0 0 -75z"/>
<path d="M620 2015 l0 -75 94 0 93 0 7 43 c4 23 9 57 12 75 l6 32 -106 0 -106 0 0 -75z"/>
<path d="M160 1830 l0 -80 100 0 100 0 0 80 0 80 -100 0 -100 0 0 -80z"/>
<path d="M624 1896 c-3 -7 -4 -42 -2 -77 l3 -64 75 -3 76 -3 12 59 c22 106 25 102 -73 102 -63 0 -87 -4 -91 -14z"/>
<path d="M390 1825 l0 -75 100 0 100 0 0 75 0 75 -100 0 -100 0 0 -75z"/>
<path d="M1076 1805 c-4 -20 -11 -33 -17 -30 -5 4 -9 -1 -9 -9 0 -23 15 -27 69 -20 l50 6 -36 44 c-19 24 -39 44 -43 44 -4 0 -11 -16 -14 -35z"/>
<path d="M693 1722 l-73 -3 0 -74 c0 -41 5 -77 10 -80 16 -10 111 5 115 19 1 6 8 29 15 51 6 22 10 52 8 65 -3 24 -5 25 -75 22z"/>
<path d="M1129 1722 l-46 -3 -2 -59 -1 -60 58 0 c47 0 63 -4 77 -20 23 -25 68 -23 73 2 4 19 -72 125 -97 136 -9 4 -37 6 -62 4z"/>
<path d="M163 1690 c4 -16 2 -32 -4 -36 -6 -3 1 -15 15 -28 14 -11 28 -36 32 -54 6 -28 9 -31 23 -20 14 12 14 11 2 -4 -7 -10 -17 -16 -21 -13 -4 3 -11 -2 -14 -11 -4 -11 4 -27 24 -45 16 -16 30 -34 30 -40 0 -5 5 -7 10 -4 6 3 10 2 10 -2 0 -5 9 -20 21 -34 15 -19 27 -25 45 -21 23 4 24 7 24 85 l0 80 -55 -6 c-44 -4 -55 -3 -55 9 0 10 14 14 55 14 l55 0 0 80 0 80 -101 0 -101 0 5 -30z"/>
<path d="M390 1640 l0 -80 100 0 100 0 0 80 0 80 -100 0 -100 0 0 -80z"/>
<path d="M1027 1713 c-10 -9 -8 -47 2 -58 5 -6 11 -19 14 -30 3 -11 5 6 6 38 1 53 -5 67 -22 50z"/>
<path d="M985 1561 c-34 -4 -51 -11 -53 -22 -2 -13 14 -15 128 -15 125 1 130 2 128 21 -3 18 -11 20 -78 21 -41 0 -97 -2 -125 -5z"/>
<path d="M402 1532 c-18 -12 -13 -157 6 -156 6 1 50 2 97 3 l85 1 0 75 0 75 -67 0 c-38 0 -77 3 -88 5 -11 3 -26 1 -33 -3z"/>
<path d="M630 1532 c-5 -2 -10 -37 -10 -78 l0 -74 66 0 c56 0 65 2 60 16 -3 9 -6 43 -6 77 l0 62 -50 0 c-27 0 -54 -1 -60 -3z"/>
<path d="M1398 1525 c13 -26 122 -132 122 -120 0 17 -17 36 -41 49 -13 7 -23 19 -21 27 2 8 1 11 -3 7 -4 -4 -21 8 -37 25 -17 18 -26 23 -20 12z"/>
<path d="M1221 1512 c-5 -9 -12 -34 -16 -55 -4 -20 -11 -40 -16 -43 -5 -3 -9 -14 -9 -26 0 -14 5 -18 16 -14 9 3 25 6 37 6 19 0 22 6 23 39 1 21 9 49 18 62 9 13 16 29 16 36 0 20 -58 16 -69 -5z"/>
<path d="M1316 1477 c-15 -19 -26 -45 -26 -58 0 -23 1 -22 21 9 12 17 27 32 35 32 19 0 18 -3 -11 -58 -14 -26 -25 -52 -25 -59 0 -14 -65 -82 -95 -100 -20 -12 -20 -12 2 -12 13 -1 45 21 82 54 37 35 61 51 64 43 2 -7 0 -21 -5 -30 -11 -22 5 -24 22 -3 18 21 33 19 27 -5 -5 -21 7 -28 18 -10 10 16 35 11 35 -7 0 -14 4 -13 24 6 48 45 43 61 -44 150 -44 44 -84 81 -89 81 -6 0 -21 -15 -35 -33z"/>
<path d="M806 1269 c-26 -82 -45 -157 -42 -165 9 -25 30 -10 32 22 1 16 20 83 42 149 32 94 38 123 29 132 -10 10 -23 -20 -61 -138z"/>
<path d="M1585 1363 c26 -26 90 -56 107 -50 7 3 3 6 -10 6 -13 1 -21 5 -18 10 3 5 -11 12 -31 16 -27 5 -33 9 -22 16 8 5 9 9 2 9 -6 0 -19 3 -29 7 -16 6 -16 5 1 -14z"/>
<path d="M1214 1352 c-41 -3 -42 -4 -63 -60 -11 -31 -23 -69 -26 -83 -6 -24 -4 -25 25 -21 24 3 28 7 19 18 -18 21 -1 51 46 81 39 25 64 59 47 66 -4 1 -26 1 -48 -1z"/>
<path d="M167 1343 c-4 -3 -7 -39 -7 -80 l0 -73 100 0 100 0 0 34 c0 19 -4 36 -8 38 -4 2 -23 22 -42 46 -31 40 -36 42 -85 42 -28 0 -55 -3 -58 -7z"/>
<path d="M346 1325 c9 -14 17 -25 19 -25 1 0 0 11 -3 25 -2 14 -11 25 -18 25 -12 0 -11 -5 2 -25z"/>
<path d="M390 1310 c0 -34 7 -47 38 -79 34 -34 42 -37 100 -40 l62 -2 0 80 0 81 -100 0 -100 0 0 -40z"/>
<path d="M627 1343 c-4 -3 -7 -39 -7 -80 l0 -73 59 0 c56 0 60 2 74 30 21 41 30 86 22 110 -6 17 -15 20 -74 20 -37 0 -71 -3 -74 -7z"/>
<path d="M2365 1306 c-33 -17 -76 -38 -95 -46 -26 -11 -36 -22 -38 -42 l-3 -28 105 0 106 0 0 75 c0 41 -3 74 -7 74 -5 -1 -35 -16 -68 -33z"/>
<path d="M1551 1317 c-6 -6 -11 -37 -11 -69 l0 -58 94 0 c98 0 112 6 113 46 1 15 -8 24 -31 32 -18 7 -39 12 -47 12 -8 0 -35 11 -60 24 -35 19 -49 22 -58 13z"/>
<path d="M1723 1303 c9 -2 23 -2 30 0 6 3 -1 5 -18 5 -16 0 -22 -2 -12 -5z"/>
<path d="M1873 1263 c4 -3 10 -3 14 0 3 4 0 7 -7 7 -7 0 -10 -3 -7 -7z"/>
<path d="M1499 1244 c-11 -13 -26 -15 -87 -10 -41 4 -79 8 -86 9 -6 1 -12 -10 -14 -25 l-3 -28 105 0 106 0 0 35 c0 40 -2 42 -21 19z"/>
<path d="M1918 1253 c6 -2 18 -2 25 0 6 3 1 5 -13 5 -14 0 -19 -2 -12 -5z"/>
<path d="M1985 1251 l-30 -7 25 -7 c14 -4 59 -6 100 -5 62 1 66 2 22 5 -29 2 -50 7 -48 11 6 10 -31 11 -69 3z"/>
<path d="M1772 1233 c3 -17 74 -47 89 -37 18 11 9 35 -17 44 -41 16 -76 13 -72 -7z"/>
<path d="M2177 1212 c-10 -10 -17 -24 -17 -31 0 -7 -7 -19 -15 -27 -33 -33 -1 -149 41 -149 17 0 19 9 22 78 3 72 1 77 -18 77 -11 0 -20 7 -20 15 0 8 9 15 20 15 13 0 20 7 20 20 0 25 -12 26 -33 2z"/>
<path d="M1255 1205 l-30 -14 33 -1 c22 0 32 5 32 15 0 8 -1 15 -2 14 -2 0 -16 -7 -33 -14z"/>
<path d="M1899 1193 c-5 -13 -9 -33 -9 -44 0 -24 -15 -24 -47 1 -34 27 -94 27 -118 0 -14 -16 -16 -23 -7 -32 7 -7 12 -26 12 -42 l-1 -31 -20 24 c-11 13 -21 22 -22 20 -1 -2 -12 -16 -25 -30 -23 -26 -23 -28 -7 -59 13 -25 14 -38 6 -62 -17 -47 -13 -100 9 -146 19 -39 23 -42 60 -42 50 0 60 20 60 125 0 84 6 105 29 105 15 0 61 -56 61 -76 0 -5 5 -16 10 -24 7 -12 13 -11 34 10 34 31 33 60 -4 95 -25 24 -28 32 -17 40 8 5 21 24 31 42 23 45 49 57 112 49 52 -6 54 -5 60 21 3 16 8 36 11 46 4 15 -4 17 -64 17 -37 0 -85 4 -106 9 -35 8 -39 7 -48 -16z m-181 -272 c5 -29 -13 -50 -29 -34 -15 15 -3 66 14 60 7 -2 14 -14 15 -26z m197 8 c8 -23 1 -34 -14 -24 -13 8 -15 45 -2 45 5 0 13 -9 16 -21z m-155 -70 c0 -9 -51 -59 -60 -59 -3 0 -13 7 -24 15 -20 15 -12 40 10 31 8 -3 22 3 32 13 17 17 42 18 42 0z"/>
<path d="M393 1193 c4 -3 10 -3 14 0 3 4 0 7 -7 7 -7 0 -10 -3 -7 -7z"/>
<path d="M401 1161 c-8 -5 -11 -32 -9 -82 l3 -74 82 -1 81 -1 -61 78 c-66 82 -77 91 -96 80z"/>
<path d="M1111 1160 c-5 -3 -11 -18 -15 -34 -13 -52 -24 -55 -180 -62 -132 -6 -148 -5 -166 11 -13 11 -20 31 -20 52 l0 34 -52 -3 -53 -3 -3 -72 -3 -73 78 -1 c43 -1 89 -2 103 -3 20 -1 25 3 23 22 -2 14 3 22 12 22 8 0 15 -9 15 -20 0 -22 1 -22 75 -22 54 0 75 -6 75 -19 0 -5 -34 -9 -75 -9 l-75 0 0 -30 c0 -18 -5 -30 -13 -30 -9 0 -12 10 -9 30 l4 30 -96 0 c-53 0 -96 -3 -96 -6 0 -4 51 -84 66 -103 2 -2 21 4 42 12 39 15 39 15 76 -14 l36 -31 39 31 c21 17 44 31 50 31 6 0 11 4 11 9 0 5 14 14 31 20 26 9 31 15 27 35 -4 20 1 27 21 36 26 10 80 11 82 0 5 -33 12 -48 38 -73 29 -29 30 -30 62 -15 21 11 41 13 58 8 18 -5 34 -3 46 6 10 8 15 14 9 14 -5 1 2 10 15 20 l23 20 -25 0 c-14 0 -31 -9 -40 -22 l-16 -23 0 23 c-1 20 -5 22 -66 22 -36 0 -65 4 -65 10 0 13 37 21 85 18 l40 -3 3 77 3 77 -87 3 c-47 2 -89 1 -93 -2z m-48 -115 c-3 -9 -8 -14 -10 -11 -3 3 -2 9 2 15 9 16 15 13 8 -4z m134 -132 c-4 -3 -10 -3 -14 0 -3 4 0 7 7 7 7 0 10 -3 7 -7z"/>
<path d="M164 1146 c-3 -7 -4 -41 -2 -75 l3 -62 98 -2 97 -3 0 78 0 78 -95 0 c-71 0 -97 -3 -101 -14z"/>
<path d="M500 1150 c0 -6 31 -52 40 -60 3 -3 16 -18 28 -34 l22 -29 0 67 0 66 -45 -2 c-25 -2 -45 -5 -45 -8z"/>
<path d="M1312 1083 l3 -78 39 -3 c43 -4 86 26 86 60 0 26 39 42 73 29 19 -7 27 -18 27 -35 0 -26 13 -40 47 -50 18 -6 21 -4 16 14 -4 14 3 30 20 48 13 15 32 42 41 60 l17 32 -71 0 c-63 0 -70 -2 -70 -19 0 -29 -18 -35 -22 -9 -3 22 -8 23 -106 26 l-103 3 3 -78z"/>
<path d="M2232 1083 l3 -78 95 2 c52 1 98 2 103 2 4 1 7 35 7 76 l0 75 -105 0 -105 0 2 -77z"/>
<path d="M1428 982 c-12 -9 -38 -31 -56 -49 -19 -18 -38 -33 -43 -33 -9 0 -5 -41 5 -59 4 -5 0 -11 -6 -14 -10 -3 -10 -8 1 -18 10 -11 15 -11 18 -1 3 8 30 12 84 12 56 0 79 4 80 13 0 6 0 33 -1 59 -1 31 4 53 14 63 8 8 16 15 18 15 2 0 2 -33 0 -74 l-4 -74 41 -4 41 -4 0 56 c0 55 -1 55 -52 93 -29 21 -54 34 -56 29 -2 -6 -14 -7 -32 -2 -20 6 -35 4 -52 -8z"/>
<path d="M169 975 c0 0 -3 -35 -6 -77 l-5 -78 101 0 101 0 0 81 0 80 -95 -3 c-52 -1 -95 -3 -96 -3z"/>
<path d="M390 900 l0 -80 100 0 100 0 2 43 c1 23 2 51 3 62 4 48 -10 55 -110 55 l-95 0 0 -80z"/>
<path d="M1620 970 c0 -7 3 -10 7 -7 3 4 3 10 0 14 -4 3 -7 0 -7 -7z"/>
<path d="M2185 959 c14 -46 25 -56 23 -20 -2 19 -9 36 -17 39 -10 3 -11 -2 -6 -19z"/>
<path d="M2234 900 l1 -80 103 0 103 0 -3 78 -3 77 -101 3 -102 3 2 -81z"/>
<path d="M608 928 c7 -7 12 -34 12 -60 0 -41 3 -48 19 -48 11 0 26 -3 34 -6 9 -3 16 2 19 13 6 23 -1 45 -13 37 -5 -3 -9 0 -9 6 0 13 -54 70 -66 70 -5 0 -3 -5 4 -12z"/>
<path d="M1105 911 c-3 -6 -28 -9 -55 -8 -35 1 -53 -3 -62 -14 -7 -9 -30 -26 -50 -38 -21 -13 -38 -25 -38 -27 0 -2 36 -4 80 -4 78 0 80 1 80 24 0 14 5 28 10 31 6 4 10 -6 10 -23 0 -28 3 -30 43 -34 47 -5 66 0 46 13 -12 8 -12 10 0 18 8 5 12 15 9 22 -8 20 -65 51 -73 40z"/>
<path d="M2207 860 c-3 -11 -1 -20 4 -20 5 0 9 9 9 20 0 11 -2 20 -4 20 -2 0 -6 -9 -9 -20z"/>
<path d="M873 813 c4 -3 10 -3 14 0 3 4 0 7 -7 7 -7 0 -10 -3 -7 -7z"/>
<path d="M653 792 l-33 -3 0 -80 0 -80 103 3 102 3 -2 38 c-2 27 2 37 12 37 11 0 15 -12 15 -40 l0 -41 103 3 102 3 3 78 3 77 -96 0 c-69 0 -100 -4 -110 -14 -8 -7 -11 -17 -7 -21 4 -4 2 -6 -3 -4 -10 2 -56 -14 -78 -28 -6 -3 -7 -1 -4 4 4 6 -6 13 -23 17 -17 3 -30 12 -30 20 0 21 -22 32 -57 28z"/>
<path d="M162 713 l3 -78 98 -3 97 -3 0 81 0 80 -100 0 -101 0 3 -77z"/>
<path d="M390 710 l0 -80 100 0 100 0 2 53 c0 28 2 64 3 80 l2 27 -103 0 -104 0 0 -80z"/>
<path d="M1082 713 l3 -78 103 -3 104 -3 -4 43 c-2 32 1 44 13 46 12 2 15 -7 15 -40 l-1 -43 98 -3 c53 -1 97 -1 98 0 0 2 3 38 5 81 l4 78 -112 -3 c-72 -2 -112 -7 -111 -14 3 -15 -79 -13 -95 3 -8 8 -36 13 -68 13 l-55 0 3 -77z"/>
<path d="M1542 713 c3 -73 4 -78 28 -83 29 -8 50 5 50 29 0 13 -2 13 -9 3 -10 -16 -46 -12 -46 4 0 14 65 91 66 78 0 -5 4 0 8 11 11 26 -3 35 -57 35 l-43 0 3 -77z"/>
<path d="M2233 713 l2 -78 103 -3 102 -3 0 81 0 80 -105 0 -105 0 3 -77z"/>
<path d="M1634 713 c-10 -7 -15 -16 -11 -19 4 -4 12 -2 19 4 7 5 27 12 43 14 l30 3 -31 6 c-19 3 -39 0 -50 -8z"/>
<path d="M1743 713 c4 -3 10 -3 14 0 3 4 0 7 -7 7 -7 0 -10 -3 -7 -7z"/>
<path d="M2206 703 c-6 -14 -5 -15 5 -6 7 7 10 15 7 18 -3 3 -9 -2 -12 -12z"/>
<path d="M2187 660 c-13 -13 -15 -20 -7 -25 13 -8 30 11 30 33 0 15 -1 15 -23 -8z"/>
<path d="M1654 658 c-4 -7 -3 -8 4 -4 12 7 16 16 8 16 -3 0 -8 -5 -12 -12z"/>
<path d="M412 602 c-22 -3 -23 -7 -20 -79 l3 -76 98 -1 c113 -1 111 -3 104 98 l-5 58 -78 1 c-44 1 -89 1 -102 -1z"/>
<path d="M636 602 c-13 -3 -16 -17 -16 -78 0 -52 4 -74 13 -75 47 -4 177 0 186 5 6 4 11 37 11 76 l0 69 -89 3 c-49 2 -96 2 -105 0z"/>
<path d="M1085 601 c-3 -2 -5 -37 -5 -78 l0 -73 58 -1 c31 0 73 -2 92 -3 58 -4 60 -1 60 80 l0 74 -72 2 c-40 0 -86 2 -101 2 -15 1 -30 0 -32 -3z"/>
<path d="M1403 602 l-93 -3 0 -64 c0 -35 2 -69 5 -77 4 -10 31 -13 103 -13 l97 1 0 78 c0 46 -4 80 -10 80 -5 1 -52 0 -102 -2z"/>
<path d="M1550 602 c-6 -2 -10 -37 -10 -78 l0 -74 85 -1 c47 -1 93 -2 103 -3 14 -1 17 8 17 63 0 35 -5 71 -11 79 -8 10 -33 15 -92 16 -45 0 -87 0 -92 -2z"/>
<path d="M2123 598 c-52 -14 -50 -27 8 -80 63 -59 89 -74 89 -56 1 9 3 8 9 -2 7 -12 27 -15 88 -13 43 1 88 2 101 3 21 0 22 4 22 74 l0 75 -95 3 c-53 2 -100 2 -105 0 -6 -2 -10 -19 -10 -38 0 -21 -5 -34 -13 -34 -8 0 -12 14 -12 36 0 32 -3 37 -25 39 -14 1 -39 -2 -57 -7z"/>
<path d="M162 525 l3 -76 98 -2 97 -2 0 78 0 77 -100 0 -101 0 3 -75z"/>
<path d="M850 525 l0 -75 28 -1 c15 0 61 -1 102 -1 l75 -1 1 76 2 77 -104 0 -104 0 0 -75z"/>
<path d="M1770 511 l0 -61 95 0 c52 0 98 0 103 0 4 0 7 21 7 48 l0 47 -60 6 c-33 4 -79 10 -102 14 l-43 8 0 -62z"/>
<path d="M2007 508 c-2 -29 -4 -54 -3 -55 5 -6 158 -5 163 1 4 3 -1 6 -10 6 -9 0 -21 9 -27 20 -13 24 -87 80 -105 80 -8 0 -14 -21 -18 -52z"/>
<path d="M164 406 c-3 -7 -4 -42 -2 -77 l3 -64 98 -3 97 -3 0 81 0 80 -95 0 c-71 0 -97 -3 -101 -14z"/>
<path d="M390 340 l0 -80 99 0 99 0 4 70 c2 39 2 75 0 80 -2 6 -47 10 -103 10 l-99 0 0 -80z"/>
<path d="M626 412 c-2 -4 -3 -33 -1 -62 2 -30 4 -63 4 -72 1 -16 12 -18 95 -18 l94 0 4 73 c2 39 2 75 0 80 -4 10 -190 9 -196 -1z"/>
<path d="M850 340 l0 -81 103 3 102 3 -2 70 c-1 39 -2 73 -2 78 -1 4 -46 7 -101 7 l-100 0 0 -80z"/>
<path d="M1085 408 c-2 -7 -3 -42 -2 -78 l2 -65 100 0 100 0 0 75 0 75 -98 3 c-72 2 -99 -1 -102 -10z"/>
<path d="M1314 406 c-3 -7 -4 -43 -2 -77 l3 -64 98 -3 97 -3 1 53 c4 117 16 103 -94 106 -77 2 -98 0 -103 -12z"/>
<path d="M1540 340 l0 -80 100 0 100 0 0 79 0 79 -100 1 -100 0 0 -79z"/>
<path d="M1774 343 l1 -78 103 -3 103 -3 -3 78 -3 78 -101 3 -101 3 1 -78z"/>
</g>


</svg>